<?xml version="1.0" encoding="utf-8"?>
<!-- Generator: Adobe Illustrator 16.0.4, SVG Export Plug-In . SVG Version: 6.00 Build 0)  -->
<!DOCTYPE svg PUBLIC "-//W3C//DTD SVG 1.1//EN" "http://www.w3.org/Graphics/SVG/1.1/DTD/svg11.dtd">
<svg version="1.1" id="Livello_1" xmlns="http://www.w3.org/2000/svg" xmlns:xlink="http://www.w3.org/1999/xlink" x="0px" y="0px"
	 width="437.074px" height="100px" viewBox="0 0 437.074 100" enable-background="new 0 0 437.074 100" xml:space="preserve">
<g>
	<g>
		<g>
			<g>
				<path fill="#575656" d="M137.068,70.242c-4.136,4.075-9.476,5.969-15.276,5.969c-14.938,0-21.254-10.282-21.315-20.734
					c-0.053-10.512,6.781-21.196,21.315-21.196c5.454,0,10.623,2.07,14.758,6.145l-5.051,4.886
					c-2.641-2.588-6.208-3.789-9.708-3.789c-9.709,0-13.902,7.235-13.848,13.954c0.057,6.666,3.907,13.615,13.848,13.615
					c3.499,0,7.463-1.438,10.104-4.079L137.068,70.242z"/>
				<path fill="#575656" d="M152.334,35.085v33.199h20.677v7.013h-28.262V35.085H152.334z"/>
				<path fill="#575656" d="M220.675,55.42c-0.114,10.397-6.491,20.791-20.62,20.791c-14.133,0-20.681-10.164-20.681-20.734
					c0-10.573,6.78-21.196,20.681-21.196C213.897,34.281,220.789,44.904,220.675,55.42z M186.84,55.592
					c0.171,6.604,3.739,13.672,13.214,13.672s13.035-7.121,13.153-13.726c0.114-6.781-3.678-14.365-13.153-14.365
					S186.669,48.814,186.84,55.592z"/>
				<path fill="#575656" d="M250.241,75.468h-7.87l-16.713-40.382h8.495l12.124,31.304l12.178-31.304h8.5L250.241,75.468z"/>
				<path fill="#575656" d="M305.601,75.297h-30.1c0-13.387,0-26.826,0-40.211h30.1v7.352h-22.575v9.247h21.768v7.066h-21.768v9.075
					h22.575V75.297z"/>
				<path fill="#575656" d="M351.138,75.297h-9.021l-11.717-13.443h-7.295v13.443h-7.582V35.032c6.378,0,12.754,0.054,19.127,0.054
					c9.479,0.057,14.476,6.376,14.476,13.325c0,5.511-2.526,11.087-10.165,12.639l12.178,13.725V75.297z M323.104,42.152V55.02
					h11.545c4.825,0,6.892-3.221,6.892-6.438c0-3.213-2.124-6.43-6.892-6.43H323.104z"/>
				<path fill="#575656" d="M386.795,67.712h-21.028l-3.441,7.585h-8.218l18.04-40.211h8.271l18.033,40.211h-8.271L386.795,67.712z
					 M376.283,43.528l-7.471,17.118h14.938L376.283,43.528z"/>
				<path fill="#575656" d="M414.06,35.085v33.199h20.682v7.013h-28.262V35.085H414.06z"/>
			</g>
		</g>
	</g>
	<linearGradient id="SVGID_1_" gradientUnits="userSpaceOnUse" x1="43.0073" y1="97.8008" x2="43.0073" y2="1.2837">
		<stop  offset="0.15" style="stop-color:#93C01C"/>
		<stop  offset="0.85" style="stop-color:#00A099"/>
	</linearGradient>
	<path fill="url(#SVGID_1_)" d="M27.192,38.345c2.831,3.278,5.276,6.751,7.406,10.52c1.83-4.729,2.17-6.806,5.433-10.917
		c-1.412-2.041-2.913-4-4.518-5.894c-1.63-1.923-3.102-3.742-3.681-6.344c-1.115-5.015,1.237-10.158,5.762-12.585
		c10.205-5.479,21.167,5.919,15.291,15.902c3.828-1.24,7.495-1.605,11.491-1.137C68.536,8.871,47.637-5.69,31.235,4.793
		C23.79,9.55,19.94,18.322,21.477,27.025C22.274,31.536,24.269,34.96,27.192,38.345z M79.445,42.674
		c-6.112-9.197-18.122-12.389-27.994-7.449c-4.775,2.391-8.51,6.438-10.501,11.395c-0.986,2.444-1.769,4.961-2.856,7.375
		c-1.086,2.412-2.309,4.735-3.682,6.998c-4.686,7.263-15.419,6.916-19.629-0.636c-4.208-7.55,1.144-16.861,9.786-17.029
		c-2.995-3.721-4.464-4.861-6.416-9.383C3.72,38.542-1.781,56.062,7.434,68.087c9.211,12.017,27.555,11.264,35.747-1.473
		c0-0.008,0.003-0.008,0.007-0.01c0-0.008,0.004-0.008,0.007-0.012c1.705-2.795,3.214-5.673,4.543-8.664
		c0.472-1.059,3.074-8.035,3.685-9.054c3.581-5.958,11.606-7.374,17.017-2.999c5.405,4.371,5.701,12.514,0.626,17.267
		c-5.072,4.751-13.175,3.925-17.186-1.751c-1.269,2.72-2.681,5.351-4.243,7.91c-0.011,0.021-0.025,0.046-0.039,0.063
		c-0.014,0.021-0.025,0.043-0.04,0.064c-0.332,0.515-0.683,1.022-1.05,1.516c8.164,7.438,20.588,7.62,28.966,0.433
		C83.86,64.184,85.561,51.87,79.445,42.674z M37.804,78.521v18.028c3.274,1.67,7.146,1.67,10.416,0V78.521
		c-1.898-1.037-3.61-2.259-5.208-3.718C41.415,76.262,39.703,77.483,37.804,78.521z"/>
</g>
</svg>
