<?xml version="1.0" encoding="utf-8"?>
<!-- Generator: Adobe Illustrator 22.1.0, SVG Export Plug-In . SVG Version: 6.00 Build 0)  -->
<svg version="1.1" id="Livello_1" xmlns="http://www.w3.org/2000/svg" xmlns:xlink="http://www.w3.org/1999/xlink" x="0px" y="0px"
	 viewBox="0 0 343 153" style="enable-background:new 0 0 343 153;" xml:space="preserve">
<style type="text/css">
	.st0{fill:#575656;}
	.st1{fill:url(#SVGID_1_);}
</style>
<g>
	<g>
		<g>
			<path class="st0" d="M41.1,144.2c-4.1,4.1-9.5,6-15.3,6c-14.9,0-21.3-10.3-21.3-20.7c-0.1-10.5,6.8-21.2,21.3-21.2
				c5.5,0,10.6,2.1,14.8,6.1l-5.1,4.9c-2.6-2.6-6.2-3.8-9.7-3.8c-9.7,0-13.9,7.2-13.8,14c0.1,6.7,3.9,13.6,13.8,13.6
				c3.5,0,7.5-1.4,10.1-4.1L41.1,144.2z"/>
			<path class="st0" d="M56.3,109.1v33.2H77v7H48.7v-40.2H56.3z"/>
			<path class="st0" d="M124.7,129.4c-0.1,10.4-6.5,20.8-20.6,20.8c-14.1,0-20.7-10.2-20.7-20.7c0-10.6,6.8-21.2,20.7-21.2
				C117.9,108.3,124.8,118.9,124.7,129.4z M90.8,129.6c0.2,6.6,3.7,13.7,13.2,13.7s13-7.1,13.2-13.7c0.1-6.8-3.7-14.4-13.2-14.4
				S90.7,122.8,90.8,129.6z"/>
			<path class="st0" d="M154.2,149.5h-7.9l-16.7-40.4h8.5l12.1,31.3l12.2-31.3h8.5L154.2,149.5z"/>
			<path class="st0" d="M209.6,149.3h-30.1c0-13.4,0-26.8,0-40.2h30.1v7.4H187v9.2h21.8v7.1H187v9.1h22.6V149.3z"/>
			<path class="st0" d="M255.1,149.3h-9l-11.7-13.4h-7.3v13.4h-7.6V109c6.4,0,12.8,0.1,19.1,0.1c9.5,0.1,14.5,6.4,14.5,13.3
				c0,5.5-2.5,11.1-10.2,12.6l12.2,13.7L255.1,149.3L255.1,149.3z M227.1,116.2V129h11.5c4.8,0,6.9-3.2,6.9-6.4
				c0-3.2-2.1-6.4-6.9-6.4H227.1z"/>
			<path class="st0" d="M290.8,141.7h-21l-3.4,7.6h-8.2l18-40.2h8.3l18,40.2h-8.3L290.8,141.7z M280.3,117.5l-7.5,17.1h14.9
				L280.3,117.5z"/>
			<path class="st0" d="M318.1,109.1v33.2h20.7v7h-28.3v-40.2H318.1z"/>
		</g>
	</g>
</g>
<linearGradient id="SVGID_1_" gradientUnits="userSpaceOnUse" x1="175.0073" y1="149.1985" x2="175.0073" y2="245.7164" gradientTransform="matrix(1 0 0 -1 0 248)">
	<stop  offset="0.15" style="stop-color:#93C01C"/>
	<stop  offset="0.85" style="stop-color:#00A099"/>
</linearGradient>
<path class="st1" d="M159.2,39.3c2.8,3.3,5.3,6.8,7.4,10.5c1.8-4.7,2.2-6.8,5.4-10.9c-1.4-2-2.9-4-4.5-5.9c-1.6-1.9-3.1-3.7-3.7-6.3
	c-1.1-5,1.2-10.2,5.8-12.6c10.2-5.5,21.2,5.9,15.3,15.9c3.8-1.2,7.5-1.6,11.5-1.1c4.2-19-16.7-33.6-33.1-23.1
	c-7.4,4.8-11.3,13.5-9.8,22.2C154.3,32.5,156.3,36,159.2,39.3z M211.4,43.7c-6.1-9.2-18.1-12.4-28-7.4c-4.8,2.4-8.5,6.4-10.5,11.4
	c-1,2.4-1.8,5-2.9,7.4c-1.1,2.4-2.3,4.7-3.7,7c-4.7,7.3-15.4,6.9-19.6-0.6c-4.2-7.5,1.1-16.9,9.8-17c-3-3.7-4.5-4.9-6.4-9.4
	c-14.4,4.6-19.9,22.1-10.7,34.1c9.2,12,27.6,11.3,35.7-1.5c0,0,0,0,0,0c0,0,0,0,0,0c1.7-2.8,3.2-5.7,4.5-8.7c0.5-1.1,3.1-8,3.7-9.1
	c3.6-6,11.6-7.4,17-3c5.4,4.4,5.7,12.5,0.6,17.3c-5.1,4.8-13.2,3.9-17.2-1.8c-1.3,2.7-2.7,5.4-4.2,7.9c0,0,0,0,0,0.1c0,0,0,0,0,0.1
	c-0.3,0.5-0.7,1-1.1,1.5c8.2,7.4,20.6,7.6,29,0.4C215.9,65.2,217.6,52.9,211.4,43.7z M169.8,79.5v18c3.3,1.7,7.1,1.7,10.4,0v-18
	c-1.9-1-3.6-2.3-5.2-3.7C173.4,77.3,171.7,78.5,169.8,79.5z"/>
</svg>
