<?xml version="1.0" standalone="no"?>
<!DOCTYPE svg PUBLIC "-//W3C//DTD SVG 20010904//EN"
 "http://www.w3.org/TR/2001/REC-SVG-20010904/DTD/svg10.dtd">
<svg version="1.0" xmlns="http://www.w3.org/2000/svg"
 width="512.000000pt" height="512.000000pt" viewBox="0 0 512.000000 512.000000"
 preserveAspectRatio="xMidYMid meet">
<metadata>
Created by potrace 1.11, written by Peter Selinger 2001-2013
</metadata>
<g transform="translate(0.000000,512.000000) scale(0.100000,-0.100000)"
fill="#000000" stroke="none">
<path d="M2450 5043 c-25 -3 -133 -22 -160 -28 -165 -36 -384 -162 -524 -301
-211 -212 -329 -493 -330 -789 0 -243 60 -443 195 -640 52 -76 66 -95 150
-194 104 -124 238 -314 323 -457 l28 -49 42 115 c23 63 45 124 50 135 4 11 7
21 7 22 -2 11 91 172 130 226 27 37 49 70 49 73 0 7 -162 224 -183 246 -39 41
-144 177 -172 223 -204 339 4 788 402 870 344 71 692 -207 697 -558 2 -129
-14 -202 -65 -293 l-17 -31 66 19 c62 17 122 29 217 43 36 5 200 7 284 2 31
-2 34 1 38 28 2 17 8 55 12 85 5 30 7 104 6 165 -8 290 -121 551 -330 758
-168 167 -362 268 -620 322 -34 8 -257 13 -295 8z"/>
<path d="M3407 3414 c-1 -1 -24 -5 -52 -8 -117 -16 -296 -73 -375 -121 -19
-11 -46 -26 -60 -33 -89 -45 -236 -180 -323 -297 -56 -75 -157 -266 -157 -297
0 -8 -4 -18 -8 -24 -5 -5 -21 -45 -36 -89 -75 -216 -216 -502 -309 -623 -110
-144 -292 -231 -478 -226 -268 6 -502 200 -562 465 -75 337 172 675 521 711
18 2 33 7 33 12 1 8 -35 54 -109 140 -61 71 -155 215 -183 280 -13 31 -28 56
-32 56 -20 0 -169 -68 -242 -111 -218 -129 -403 -360 -484 -604 -78 -237 -75
-518 9 -745 26 -70 105 -229 120 -240 3 -3 20 -25 37 -50 73 -108 223 -240
355 -314 64 -35 198 -91 240 -100 13 -3 41 -10 63 -15 121 -31 326 -33 478 -6
49 9 185 55 252 85 173 77 349 231 462 403 98 149 219 394 322 657 52 129 105
255 119 279 40 68 142 163 219 203 302 159 667 40 812 -265 16 -34 32 -73 35
-87 3 -14 8 -36 11 -50 13 -57 13 -163 -1 -232 -55 -269 -294 -469 -564 -470
-102 -1 -140 5 -217 33 -81 31 -158 82 -225 151 l-58 58 -46 -92 c-42 -84 -59
-116 -127 -238 -10 -19 -37 -61 -58 -94 -21 -32 -39 -62 -39 -66 0 -21 151
-126 257 -179 545 -269 1212 -55 1496 480 51 96 98 229 118 334 17 89 16 322
-1 400 -7 33 -14 65 -16 70 -18 87 -75 223 -134 320 -137 226 -362 403 -615
484 -125 40 -195 51 -348 55 -54 1 -99 1 -100 0z"/>
<path d="M2515 1208 c-51 -42 -185 -133 -207 -140 -10 -4 -13 -109 -13 -472
l0 -468 25 -13 c89 -45 255 -66 355 -44 57 12 154 48 156 58 1 3 2 213 3 465
1 298 -2 463 -9 468 -5 5 -44 30 -85 56 -41 27 -97 67 -123 90 -27 23 -49 42
-50 42 -1 0 -25 -19 -52 -42z"/>
</g>
</svg>
