<?xml version="1.0" encoding="utf-8"?>
<!-- Generator: Adobe Illustrator 16.0.4, SVG Export Plug-In . SVG Version: 6.00 Build 0)  -->
<!DOCTYPE svg PUBLIC "-//W3C//DTD SVG 1.1//EN" "http://www.w3.org/Graphics/SVG/1.1/DTD/svg11.dtd">
<svg version="1.1" id="Livello_1" xmlns="http://www.w3.org/2000/svg" xmlns:xlink="http://www.w3.org/1999/xlink" x="0px" y="0px"
	 width="279.495px" height="89.613px" viewBox="0 0 279.495 89.613" enable-background="new 0 0 279.495 89.613"
	 xml:space="preserve">
<g>
	<path fill="#FFFFFF" d="M153.142,88.23h-6.705V58.504c0-3.738-1.108-6.962-3.234-9.603c-2.121-2.629-5.013-3.989-8.499-3.989
		c-3.561,0-6.619,1.189-9.254,3.486c-2.555,2.286-3.823,5.179-3.823,8.665V88.23h-6.802V57.063c0-3.486-1.269-6.379-3.903-8.665
		c-2.549-2.297-5.607-3.486-9.174-3.486c-3.48,0-6.281,1.36-8.413,3.989c-2.126,2.641-3.138,5.773-3.138,9.603V88.23H83.48V59.27
		c0-6.035,1.703-10.962,5.184-14.608c3.229-3.486,7.476-5.441,12.74-5.864c7.053-0.595,12.66,2.463,16.826,9.008
		c4.161-6.545,9.768-9.603,16.815-9.008c5.264,0.423,9.521,2.378,12.831,5.864c3.481,3.646,5.265,8.573,5.265,14.608V88.23z"/>
	<path fill="#FFFFFF" d="M202.255,82.12c-5.014,5.013-11.043,7.476-18.01,7.219c-6.711-0.172-12.488-2.715-17.164-7.642
		c-4.67-4.933-6.961-10.797-6.961-17.587c0-7.047,2.549-13.174,7.561-18.175c5.008-5.104,11.043-7.567,18.01-7.311
		c6.711,0.252,12.482,2.801,17.158,7.813c4.67,4.927,7.053,10.791,7.053,17.581C209.901,70.992,207.353,77.027,202.255,82.12z
		 M184.331,82.966c5.35,0.264,9.854-1.525,13.591-5.521c3.823-3.989,5.606-8.579,5.521-13.929
		c-0.166-5.104-2.035-9.431-5.521-13.083s-7.642-5.436-12.574-5.436c-5.184-0.086-9.517,1.783-13.169,5.436
		c-3.646,3.652-5.435,7.979-5.515,13.169c-0.092,5.092,1.526,9.596,5.007,13.425C175.151,80.846,179.317,82.801,184.331,82.966z"/>
	<path fill="#FFFFFF" d="M222.904,88.23h-6.458V17.438h6.458V88.23z"/>
	<path fill="#FFFFFF" d="M279.487,64.282c0.166,6.961-2.297,12.997-7.476,18.09c-5.184,5.012-11.214,7.476-18.187,7.224
		c-6.704-0.165-12.482-2.715-17.158-7.642c-4.67-4.927-6.961-10.796-6.961-17.592c0-7.047,2.549-13.163,7.562-18.176
		c5.007-5.098,11.036-7.562,18.009-7.31c7.134,0.251,13.078,3.144,17.833,8.585V17.438h6.378V64.282z M253.911,83.229
		c5.355,0.251,9.854-1.532,13.592-5.533c3.823-3.989,5.606-8.573,5.44-13.929c-0.085-5.093-1.954-9.425-5.44-13.083
		c-3.481-3.651-7.643-5.43-12.654-5.43c-5.099-0.091-9.511,1.778-13.169,5.43c-3.652,3.658-5.436,7.99-5.521,13.169
		c-0.086,5.104,1.617,9.603,5.098,13.426C244.737,81.097,248.898,83.052,253.911,83.229z"/>
</g>
<polygon fill="#FFFFFF" points="19.81,38.608 0,38.608 23.742,88.225 43.569,88.225 "/>
<path fill="#FFFFFF" d="M101.53,0c-0.995,0.04-2,0.046-2.938,0.126C83.303,1.349,70.049,7.585,60.355,18.072
	c-3.229,3.384-6.03,7.179-8.339,11.294L37.048,60.63l9.911,20.701l20.793-43.449c1.549-2.726,3.418-5.24,5.635-7.566
	c6.693-7.23,15.895-11.5,26.669-12.363c0.48-0.046,0.983-0.046,1.475-0.062V0z"/>
</svg>
