<?xml version="1.0" encoding="utf-8"?>
<!-- Generator: Adobe Illustrator 16.0.4, SVG Export Plug-In . SVG Version: 6.00 Build 0)  -->
<!DOCTYPE svg PUBLIC "-//W3C//DTD SVG 1.1//EN" "http://www.w3.org/Graphics/SVG/1.1/DTD/svg11.dtd">
<svg version="1.1" id="Livello_1" xmlns="http://www.w3.org/2000/svg" xmlns:xlink="http://www.w3.org/1999/xlink" x="0px" y="0px"
	 width="223.042px" height="44.991px" viewBox="0 0 223.042 44.991" enable-background="new 0 0 223.042 44.991"
	 xml:space="preserve">
<g>
	<g>
		<path fill="#9FC641" d="M151.654,43.97h-1.713V19.406H163.4v1.579h-11.746v10.417h11.09v1.597h-11.09V43.97z"/>
		<path fill="#9FC641" d="M185.273,19.406V35.3c0,2.823-0.816,5.03-2.451,6.62c-1.637,1.59-3.916,2.386-6.838,2.386
			c-2.846,0-5.064-0.799-6.662-2.394c-1.598-1.597-2.395-3.823-2.395-6.68V19.406h1.73V35.3c0,2.363,0.656,4.204,1.965,5.52
			c1.312,1.317,3.164,1.975,5.562,1.975c2.342,0,4.156-0.647,5.443-1.941c1.287-1.293,1.934-3.087,1.934-5.385V19.406H185.273z"/>
		<path fill="#9FC641" d="M191.962,43.97V19.406h1.713v22.951h11.709v1.612H191.962z"/>
		<path fill="#9FC641" d="M209.619,43.97V19.406h1.715v22.951h11.709v1.612H209.619z"/>
	</g>
	<g>
		<g>
			<path fill="#FFFFFF" d="M76.9,44.306h-3.366V29.378c0-1.877-0.557-3.496-1.625-4.821c-1.064-1.32-2.517-2.004-4.268-2.004
				c-1.788,0-3.323,0.598-4.646,1.751c-1.283,1.148-1.92,2.601-1.92,4.352v15.65H57.66v-15.65c0-1.751-0.638-3.203-1.961-4.352
				c-1.28-1.153-2.815-1.751-4.606-1.751c-1.748,0-3.154,0.684-4.225,2.004c-1.067,1.325-1.575,2.898-1.575,4.821v14.928H41.92
				V29.763c0-3.031,0.855-5.505,2.604-7.336c1.621-1.751,3.754-2.732,6.397-2.944c3.542-0.299,6.357,1.236,8.449,4.522
				c2.09-3.286,4.905-4.821,8.444-4.522c2.643,0.212,4.781,1.193,6.442,2.944c1.748,1.831,2.644,4.305,2.644,7.336V44.306z"/>
			<path fill="#FFFFFF" d="M101.563,41.237c-2.518,2.517-5.545,3.754-9.044,3.625c-3.369-0.086-6.271-1.363-8.619-3.838
				c-2.345-2.477-3.495-5.421-3.495-8.831c0-3.538,1.279-6.615,3.797-9.127c2.514-2.562,5.545-3.8,9.044-3.671
				c3.369,0.127,6.268,1.406,8.615,3.924c2.345,2.474,3.542,5.419,3.542,8.828C105.404,35.649,104.123,38.68,101.563,41.237z
				 M92.562,41.662c2.687,0.132,4.948-0.767,6.825-2.772c1.92-2.004,2.815-4.309,2.772-6.994c-0.083-2.563-1.021-4.736-2.772-6.57
				s-3.837-2.729-6.314-2.729c-2.603-0.043-4.778,0.896-6.612,2.729c-1.831,1.834-2.729,4.007-2.77,6.613
				c-0.046,2.557,0.766,4.818,2.514,6.741C87.953,40.597,90.046,41.579,92.562,41.662z"/>
			<path fill="#FFFFFF" d="M111.933,44.306h-3.244V8.757h3.244V44.306z"/>
			<path fill="#FFFFFF" d="M140.347,32.279c0.082,3.496-1.154,6.527-3.756,9.084c-2.602,2.518-5.631,3.754-9.131,3.628
				c-3.367-0.083-6.27-1.363-8.617-3.837c-2.344-2.475-3.496-5.422-3.496-8.835c0-3.538,1.281-6.609,3.799-9.126
				c2.514-2.561,5.541-3.798,9.043-3.671c3.582,0.126,6.566,1.578,8.955,4.311V8.757h3.203V32.279z M127.503,41.794
				c2.689,0.126,4.947-0.77,6.824-2.778c1.92-2.003,2.816-4.305,2.732-6.994c-0.043-2.558-0.982-4.733-2.732-6.569
				c-1.748-1.834-3.838-2.727-6.354-2.727c-2.561-0.046-4.777,0.893-6.613,2.727c-1.834,1.836-2.729,4.012-2.773,6.612
				c-0.043,2.563,0.812,4.821,2.561,6.742C122.896,40.724,124.986,41.705,127.503,41.794z"/>
		</g>
		<path fill="#FFFFFF" d="M76.9,44.306h-3.366V29.378c0-1.877-0.557-3.496-1.625-4.821c-1.064-1.32-2.517-2.004-4.268-2.004
			c-1.788,0-3.323,0.598-4.646,1.751c-1.283,1.148-1.92,2.601-1.92,4.352v15.65H57.66v-15.65c0-1.751-0.638-3.203-1.961-4.352
			c-1.28-1.153-2.815-1.751-4.606-1.751c-1.748,0-3.154,0.684-4.225,2.004c-1.067,1.325-1.575,2.898-1.575,4.821v14.928H41.92
			V29.763c0-3.031,0.855-5.505,2.604-7.336c1.621-1.751,3.754-2.732,6.397-2.944c3.542-0.299,6.357,1.236,8.449,4.522
			c2.09-3.286,4.905-4.821,8.444-4.522c2.643,0.212,4.781,1.193,6.442,2.944c1.748,1.831,2.644,4.305,2.644,7.336V44.306z"/>
		<polygon fill="#FFFFFF" points="9.947,19.388 0,19.388 11.922,44.303 21.879,44.303 		"/>
		<path fill="#FFFFFF" d="M50.984,0c-0.5,0.021-1.005,0.022-1.476,0.063c-7.678,0.614-14.333,3.745-19.201,9.012
			c-1.621,1.699-3.027,3.604-4.188,5.671l-7.517,15.699l4.977,10.396l10.441-21.818c0.778-1.369,1.717-2.632,2.83-3.8
			c3.361-3.63,7.981-5.774,13.392-6.208c0.241-0.022,0.494-0.022,0.741-0.031V0z"/>
	</g>
</g>
</svg>
