<?xml version="1.0" encoding="utf-8"?>
<!-- Generator: Adobe Illustrator 21.1.0, SVG Export Plug-In . SVG Version: 6.00 Build 0)  -->
<svg version="1.1" id="Livello_1" xmlns="http://www.w3.org/2000/svg" xmlns:xlink="http://www.w3.org/1999/xlink" x="0px" y="0px"
	 viewBox="0 0 310.2 45" style="enable-background:new 0 0 310.2 45;" xml:space="preserve">
<style type="text/css">
	.st0{fill:#FFFFFF;}
	.st1{fill:#9FC641;}
</style>
<g>
	<g>
		<path class="st0" d="M76.9,44.3h-3.4V29.4c0-1.9-0.6-3.5-1.6-4.8c-1.1-1.3-2.5-2-4.3-2c-1.8,0-3.3,0.6-4.6,1.8
			c-1.3,1.1-1.9,2.6-1.9,4.4v15.6h-3.4V28.6c0-1.8-0.6-3.2-2-4.4c-1.3-1.2-2.8-1.8-4.6-1.8c-1.7,0-3.2,0.7-4.2,2
			c-1.1,1.3-1.6,2.9-1.6,4.8v14.9h-3.4V29.8c0-3,0.9-5.5,2.6-7.3c1.6-1.8,3.8-2.7,6.4-2.9c3.5-0.3,6.4,1.2,8.4,4.5
			c2.1-3.3,4.9-4.8,8.4-4.5c2.6,0.2,4.8,1.2,6.4,2.9c1.7,1.8,2.6,4.3,2.6,7.3C76.9,29.8,76.9,44.3,76.9,44.3z"/>
		<path class="st0" d="M101.5,41.2c-2.5,2.5-5.5,3.8-9,3.6c-3.4-0.1-6.3-1.4-8.6-3.8c-2.3-2.5-3.5-5.4-3.5-8.8
			c0-3.5,1.3-6.6,3.8-9.1c2.5-2.6,5.5-3.8,9-3.7c3.4,0.1,6.3,1.4,8.6,3.9c2.3,2.5,3.5,5.4,3.5,8.8C105.4,35.6,104.1,38.7,101.5,41.2
			z M92.5,41.6c2.7,0.1,4.9-0.8,6.8-2.8c1.9-2,2.8-4.3,2.8-7c-0.1-2.6-1-4.7-2.8-6.6c-1.8-1.8-3.8-2.7-6.3-2.7
			c-2.6,0-4.8,0.9-6.6,2.7c-1.8,1.8-2.7,4-2.8,6.6c0,2.6,0.8,4.8,2.5,6.7C87.9,40.6,90,41.6,92.5,41.6z"/>
		<path class="st0" d="M111.9,44.3h-3.2V8.8h3.2V44.3z"/>
		<path class="st0" d="M140.3,32.3c0.1,3.5-1.2,6.5-3.8,9.1c-2.6,2.5-5.6,3.8-9.1,3.6c-3.4-0.1-6.3-1.4-8.6-3.8
			c-2.3-2.5-3.5-5.4-3.5-8.8c0-3.5,1.3-6.6,3.8-9.1c2.5-2.6,5.5-3.8,9-3.7c3.6,0.1,6.6,1.6,9,4.3V8.8h3.2L140.3,32.3L140.3,32.3z
			 M127.5,41.8c2.7,0.1,4.9-0.8,6.8-2.8c1.9-2,2.8-4.3,2.7-7c0-2.6-1-4.7-2.7-6.6c-1.7-1.8-3.8-2.7-6.4-2.7c-2.6,0-4.8,0.9-6.6,2.7
			c-1.8,1.8-2.7,4-2.8,6.6c0,2.6,0.8,4.8,2.6,6.7C122.8,40.7,124.9,41.7,127.5,41.8z"/>
	</g>
	<path class="st0" d="M76.9,44.3h-3.4V29.4c0-1.9-0.6-3.5-1.6-4.8c-1.1-1.3-2.5-2-4.3-2c-1.8,0-3.3,0.6-4.6,1.8
		c-1.3,1.1-1.9,2.6-1.9,4.4v15.6h-3.4V28.6c0-1.8-0.6-3.2-2-4.4c-1.3-1.2-2.8-1.8-4.6-1.8c-1.7,0-3.2,0.7-4.2,2
		c-1.1,1.3-1.6,2.9-1.6,4.8v14.9h-3.4V29.8c0-3,0.9-5.5,2.6-7.3c1.6-1.8,3.8-2.7,6.4-2.9c3.5-0.3,6.4,1.2,8.4,4.5
		c2.1-3.3,4.9-4.8,8.4-4.5c2.6,0.2,4.8,1.2,6.4,2.9c1.7,1.8,2.6,4.3,2.6,7.3C76.9,29.8,76.9,44.3,76.9,44.3z"/>
	<polygon class="st0" points="9.9,19.4 0,19.4 11.9,44.3 21.9,44.3 	"/>
	<path class="st0" d="M51,0c-0.5,0-1,0-1.5,0.1c-7.7,0.6-14.3,3.7-19.2,9c-1.6,1.7-3,3.6-4.2,5.7l-7.5,15.7l5,10.4L34,19
		c0.8-1.4,1.7-2.6,2.8-3.8c3.4-3.6,8-5.8,13.4-6.2c0.2,0,0.5,0,0.7,0L51,0L51,0z"/>
</g>
<g>
	<path class="st1" d="M155.9,43.7c-2,0-4.2-0.7-5.7-1.7l0.3-1.8c1.7,1.6,3.8,2.2,5.7,2.2c3.5,0,5.2-2,5.2-4.5s-1.3-3.8-5.5-5.6
		c-4.4-1.9-5.2-4.1-5.2-6.6c0-3.4,2.6-6.2,7-6.2c2.3,0,3.8,0.6,4.8,1.2l-0.4,1.7c-1.3-1-3-1.5-4.9-1.5c-2.5,0-4.9,1.7-4.9,4.5
		s0.9,3.9,5,5.7c3.9,1.7,5.7,3.6,5.7,6.5C163,41,160.5,43.7,155.9,43.7z"/>
	<path class="st1" d="M176.2,21.2h-2.9V36c0,2.8,0,5.4,0.1,7.3h-1.8c0-1.9,0.1-4.7,0.1-7.4V21.2h-2.8c-2.1,0-3.5,0-4.7,0l0-1.5H181
		v1.5C180,21.2,178.3,21.2,176.2,21.2z"/>
	<path class="st1" d="M197.4,43.3c-0.8-2.2-1.7-4.4-3.2-8.4h-9.6c-1.3,3.4-2.5,6.4-3.2,8.4h-1.8c1-2.3,2.2-5,4.4-10.8
		c3-7.7,4.1-10.5,4.9-12.9h1.1c0.7,2,2.4,6.2,5.1,13c1.7,4.4,3.5,8.8,4.3,10.7H197.4z M189.7,23.4c-0.1-0.3-0.3-1.1-0.3-1.5h-0.1
		c0,0.4-0.2,1-0.3,1.5l-3.8,10.1h8.5L189.7,23.4z"/>
	<path class="st1" d="M220.5,43.6l-15.5-19.9c-0.2-0.3-0.6-1.1-0.7-1.4h-0.1c0.1,0.3,0.2,1.2,0.2,1.6v19.4h-1.6c0-1.9,0-5.3,0-9
		v-5.8c0-4.2,0-7.3,0-9h0.8l15.1,19.6c0.3,0.3,0.7,1.1,0.9,1.5h0.1c-0.1-0.4-0.2-1.4-0.2-1.9V19.8h1.6c0,1.7,0,4.3,0,8.6v5.7
		c0,4.5,0,8,0,9.6H220.5z"/>
	<path class="st1" d="M234.3,43.3c-1.6,0-4.8,0-6.3,0c0-1.4,0.1-3.9,0.1-8.8v-5.9c0-4.9-0.1-7.3-0.1-8.9c1.2,0,4.6-0.1,6.5-0.1
		c8.2,0,12.6,3.5,12.6,11.6C247.1,38.5,242.2,43.3,234.3,43.3z M234.3,21.1c-1.4,0-3.3,0-4.6,0v20.8c1.5,0,3.4,0,4.5,0
		c7.3,0,11.3-4.4,11.3-10.7C245.5,24,241.3,21.1,234.3,21.1z"/>
	<path class="st1" d="M266.3,43.3c-0.8-2.2-1.7-4.4-3.2-8.4h-9.6c-1.3,3.4-2.5,6.4-3.2,8.4h-1.8c1-2.3,2.2-5,4.4-10.8
		c3-7.7,4.1-10.5,4.9-12.9h1.1c0.7,2,2.4,6.2,5.1,13c1.7,4.4,3.5,8.8,4.3,10.7H266.3z M258.6,23.4c-0.1-0.3-0.3-1.1-0.3-1.5h-0.1
		c0,0.4-0.2,1-0.3,1.5L254,33.5h8.5L258.6,23.4z"/>
	<path class="st1" d="M284.4,43.3c-1.7-2.8-5.5-8.5-6.9-10.8c-1.5,0-3,0-4,0c0,5.6,0,8.8,0.1,10.8h-1.8c0-2.5,0.1-4.1,0.1-8.3v-6.7
		c0-3.7,0-6.5-0.1-8.6c2.1-0.1,4.6-0.1,5.6-0.1c5.1,0,7.2,2.3,7.2,6c0,3.1-2,5.8-5.4,6.6c1.6,2.5,5.5,8.6,7.3,11.1H284.4z M277.3,21
		c-1.2,0-3.1,0-3.8,0.1v10c1,0,3.4,0,4.1,0c3.1,0,5.4-2.1,5.4-5.3C283,22.9,281.4,21,277.3,21z"/>
	<path class="st1" d="M297,43.3c-1.6,0-4.8,0-6.3,0c0-1.4,0.1-3.9,0.1-8.8v-5.9c0-4.9-0.1-7.3-0.1-8.9c1.2,0,4.6-0.1,6.5-0.1
		c8.2,0,12.6,3.5,12.6,11.6C309.8,38.5,304.9,43.3,297,43.3z M297,21.1c-1.4,0-3.3,0-4.6,0v20.8c1.5,0,3.4,0,4.5,0
		c7.3,0,11.3-4.4,11.3-10.7C308.2,24,304,21.1,297,21.1z"/>
</g>
</svg>
