<?xml version="1.0" encoding="utf-8"?>
<!-- Generator: Adobe Illustrator 16.0.4, SVG Export Plug-In . SVG Version: 6.00 Build 0)  -->
<!DOCTYPE svg PUBLIC "-//W3C//DTD SVG 1.1//EN" "http://www.w3.org/Graphics/SVG/1.1/DTD/svg11.dtd">
<svg version="1.1" id="Livello_1" xmlns="http://www.w3.org/2000/svg" xmlns:xlink="http://www.w3.org/1999/xlink" x="0px" y="0px"
	 width="241.136px" height="44.982px" viewBox="0 0 241.136 44.982" enable-background="new 0 0 241.136 44.982"
	 xml:space="preserve">
<g>
	<g>
		<path fill="#9FC641" d="M149.596,43.947v-24.89h1.736v23.255h11.866v1.635H149.596z"/>
		<path fill="#9FC641" d="M167.489,43.947v-24.89h1.736v24.89H167.489z"/>
		<path fill="#9FC641" d="M186.063,31.4h9.176v11.355c-2.407,1.021-5.113,1.532-8.121,1.532c-3.928,0-6.938-1.108-9.031-3.329
			c-2.094-2.218-3.141-5.358-3.141-9.422c0-2.53,0.52-4.776,1.557-6.733c1.039-1.958,2.525-3.47,4.461-4.538
			c1.936-1.064,4.156-1.599,6.666-1.599c2.711,0,5.146,0.499,7.303,1.498l-0.698,1.566c-2.157-0.999-4.393-1.498-6.708-1.498
			c-3.279,0-5.882,1.012-7.805,3.038c-1.924,2.025-2.886,4.758-2.886,8.198c0,3.745,0.913,6.562,2.741,8.452
			c1.826,1.889,4.511,2.834,8.053,2.834c2.291,0,4.238-0.322,5.838-0.971v-8.75h-7.404V31.4z"/>
		<path fill="#9FC641" d="M219.515,43.947h-1.753V31.706h-14.539v12.241h-1.736v-24.89h1.736v11.05h14.539v-11.05h1.753V43.947z"/>
		<path fill="#9FC641" d="M233.049,43.947h-1.754V20.692h-8.086v-1.635h17.927v1.635h-8.087V43.947z"/>
	</g>
	<g>
		<g>
			<path fill="#FFFFFF" d="M76.87,44.288h-3.365V29.366c0-1.876-0.556-3.494-1.624-4.819c-1.064-1.32-2.516-2.003-4.266-2.003
				c-1.788,0-3.322,0.597-4.645,1.75c-1.282,1.147-1.919,2.6-1.919,4.35v15.645h-3.414V28.644c0-1.75-0.637-3.202-1.96-4.35
				c-1.279-1.153-2.814-1.75-4.604-1.75c-1.747,0-3.153,0.683-4.223,2.003c-1.067,1.325-1.575,2.897-1.575,4.819v14.922h-3.371
				V29.751c0-3.029,0.855-5.503,2.602-7.333c1.621-1.75,3.752-2.731,6.395-2.943c3.54-0.299,6.354,1.236,8.446,4.521
				c2.089-3.285,4.903-4.82,8.44-4.521c2.643,0.212,4.78,1.193,6.441,2.943c1.747,1.83,2.642,4.304,2.642,7.333V44.288z"/>
			<path fill="#FFFFFF" d="M101.523,41.221c-2.516,2.517-5.542,3.753-9.04,3.624c-3.368-0.086-6.269-1.363-8.615-3.836
				c-2.344-2.477-3.494-5.42-3.494-8.828c0-3.537,1.279-6.612,3.795-9.123c2.513-2.562,5.542-3.799,9.04-3.669
				c3.368,0.126,6.266,1.405,8.612,3.922c2.344,2.473,3.541,5.416,3.541,8.824C105.362,35.635,104.082,38.665,101.523,41.221z
				 M92.526,41.646c2.686,0.132,4.946-0.766,6.823-2.771c1.919-2.002,2.814-4.307,2.771-6.991c-0.083-2.562-1.021-4.734-2.771-6.567
				c-1.75-1.833-3.836-2.729-6.312-2.729c-2.602-0.043-4.776,0.896-6.61,2.729c-1.831,1.833-2.729,4.005-2.769,6.61
				c-0.046,2.556,0.766,4.816,2.513,6.739C87.918,40.581,90.01,41.562,92.526,41.646z"/>
			<path fill="#FFFFFF" d="M111.889,44.288h-3.242V8.753h3.242V44.288z"/>
			<path fill="#FFFFFF" d="M140.292,32.267c0.082,3.495-1.154,6.524-3.753,9.08c-2.603,2.517-5.629,3.753-9.129,3.627
				c-3.365-0.083-6.266-1.363-8.613-3.836c-2.344-2.473-3.494-5.419-3.494-8.83c0-3.538,1.279-6.607,3.795-9.124
				c2.514-2.559,5.54-3.795,9.04-3.669c3.581,0.126,6.563,1.578,8.951,4.309V8.753h3.202V32.267z M127.453,41.777
				c2.688,0.126,4.946-0.769,6.822-2.777c1.919-2.002,2.814-4.303,2.731-6.991c-0.043-2.557-0.981-4.73-2.731-6.567
				c-1.747-1.833-3.836-2.726-6.353-2.726c-2.559-0.045-4.773,0.893-6.609,2.726c-1.833,1.837-2.729,4.011-2.771,6.61
				c-0.043,2.562,0.812,4.82,2.559,6.739C122.848,40.707,124.936,41.688,127.453,41.777z"/>
		</g>
		<path fill="#FFFFFF" d="M76.87,44.288h-3.365V29.366c0-1.876-0.556-3.494-1.624-4.819c-1.064-1.32-2.516-2.003-4.266-2.003
			c-1.788,0-3.322,0.597-4.645,1.75c-1.282,1.147-1.919,2.6-1.919,4.35v15.645h-3.414V28.644c0-1.75-0.637-3.202-1.96-4.35
			c-1.279-1.153-2.814-1.75-4.604-1.75c-1.747,0-3.153,0.683-4.223,2.003c-1.067,1.325-1.575,2.897-1.575,4.819v14.922h-3.371
			V29.751c0-3.029,0.855-5.503,2.602-7.333c1.621-1.75,3.752-2.731,6.395-2.943c3.54-0.299,6.354,1.236,8.446,4.521
			c2.089-3.285,4.903-4.82,8.44-4.521c2.643,0.212,4.78,1.193,6.441,2.943c1.747,1.83,2.642,4.304,2.642,7.333V44.288z"/>
		<polygon fill="#FFFFFF" points="9.944,19.38 0,19.38 11.917,44.285 21.87,44.285 		"/>
		<path fill="#FFFFFF" d="M50.964,0c-0.5,0.021-1.004,0.022-1.475,0.063c-7.674,0.613-14.328,3.744-19.193,9.008
			c-1.621,1.699-3.027,3.604-4.186,5.669l-7.514,15.693l4.975,10.392l10.437-21.81c0.777-1.369,1.716-2.631,2.829-3.799
			c3.359-3.629,7.979-5.772,13.386-6.205c0.241-0.023,0.494-0.023,0.74-0.032V0z"/>
	</g>
</g>
</svg>
