<?xml version="1.0" encoding="utf-8"?>
<!-- Generator: Adobe Illustrator 21.1.0, SVG Export Plug-In . SVG Version: 6.00 Build 0)  -->
<svg version="1.1" id="Livello_1" xmlns="http://www.w3.org/2000/svg" xmlns:xlink="http://www.w3.org/1999/xlink" x="0px" y="0px"
	 viewBox="0 0 160 160" style="enable-background:new 0 0 160 160;" xml:space="preserve">
<style type="text/css">
	.st0{display:none;}
	.st1{display:inline;}
	.st2{fill:#FFFFFF;}
</style>
<g id="no" class="st0">
</g>
<g id="CAD" class="st0">
</g>
<g id="vmold" class="st0">
</g>
<g id="dati_1_" class="st0">
</g>
<g id="server" class="st0">
</g>
<g id="img" class="st0">
</g>
<g id="foto" class="st0">
</g>
<g id="gestionali" class="st0">
	<g class="st1">
		<g>
			<g>
				<path class="st2" d="M80,160c-44.1,0-80-35.9-80-80S35.9,0,80,0s80,35.9,80,80S124.1,160,80,160z M80,2.5
					C37.3,2.5,2.5,37.3,2.5,80s34.8,77.5,77.5,77.5s77.5-34.8,77.5-77.5S122.7,2.5,80,2.5z"/>
			</g>
		</g>
		<g>
			<path class="st2" d="M119.3,66.9H79.9c-0.8,0-1.3,0.5-1.3,1.3v49.9c0,0.8,0.5,1.3,1.3,1.3h39.4c0.8,0,1.3-0.5,1.3-1.3V68.2
				C120.6,67.4,120.1,66.9,119.3,66.9z M118,116.8H81.2V80H118V116.8z M118,77.4H81.2v-2.7H97v-2.6H81.2v-2.7H118V77.4z"/>
			<polygon class="st2" points="91.8,82.7 87.9,82.6 87.8,85.2 91.7,85.2 			"/>
			<polygon class="st2" points="98.3,82.7 94.4,82.6 94.4,85.2 98.3,85.2 			"/>
			<polygon class="st2" points="104.9,82.7 101,82.6 101,85.2 104.9,85.2 			"/>
			<polygon class="st2" points="111.5,82.7 107.6,82.6 107.5,85.2 111.4,85.2 			"/>
			<polygon class="st2" points="90.5,89.2 85.2,89.2 85.2,91.8 90.4,91.8 			"/>
			<polygon class="st2" points="98.3,89.2 93.1,89.2 93.1,91.8 98.3,91.8 			"/>
			<polygon class="st2" points="106.2,89.2 101,89.2 101,91.8 106.2,91.8 			"/>
			<polygon class="st2" points="108.8,91.8 114.1,91.8 114.1,89.2 108.9,89.2 			"/>
			<polygon class="st2" points="90.5,94.5 85.2,94.4 85.2,97 90.4,97 			"/>
			<polygon class="st2" points="98.3,94.5 93.1,94.4 93.1,97 98.3,97 			"/>
			<polygon class="st2" points="106.2,94.5 101,94.4 101,97 106.2,97 			"/>
			<polygon class="st2" points="108.8,97 114.1,97 114.1,94.5 108.9,94.4 			"/>
			<polygon class="st2" points="90.5,99.7 85.2,99.7 85.2,102.3 90.4,102.3 			"/>
			<polygon class="st2" points="98.3,99.7 93.1,99.7 93.1,102.3 98.3,102.3 			"/>
			<polygon class="st2" points="106.2,99.7 101,99.7 101,102.3 106.2,102.3 			"/>
			<polygon class="st2" points="108.8,102.3 114.1,102.3 114.1,99.7 108.9,99.7 			"/>
			<polygon class="st2" points="90.5,105 85.2,105 85.2,107.5 90.4,107.5 			"/>
			<polygon class="st2" points="98.3,105 93.1,105 93.1,107.5 98.3,107.5 			"/>
			<polygon class="st2" points="106.2,105 101,105 101,107.5 106.2,107.5 			"/>
			<polygon class="st2" points="108.8,107.5 114.1,107.5 114.1,105 108.9,105 			"/>
			<polygon class="st2" points="90.5,110.2 85.2,110.2 85.2,112.8 90.4,112.8 			"/>
			<polygon class="st2" points="98.3,110.2 93.1,110.2 93.1,112.8 98.3,112.8 			"/>
			<polygon class="st2" points="106.2,110.2 101,110.2 101,112.8 106.2,112.8 			"/>
			<polygon class="st2" points="108.8,112.8 114.1,112.8 114.1,110.2 108.9,110.2 			"/>
			<path class="st2" d="M45.7,59h14.4c0.8,0,1.3-0.5,1.3-1.3V43.2h44.7v18.4h2.6V41.9c0-0.8-0.5-1.3-1.3-1.3H60.2
				c-0.1,0-0.2,0-0.4,0.1h-0.1c-0.1,0.1-0.1,0.1-0.2,0.1c-0.1,0-0.1,0.1-0.2,0.1L43.5,56.8c-0.1,0.1-0.1,0.1-0.1,0.2
				c0,0.1-0.1,0.1-0.1,0.2v0.1c0,0.1,0,0.1-0.1,0.2c0,0.1-0.1,0.1-0.1,0.2v14.4h2.6L45.7,59z M58.9,45v11.4l-11.3-0.1L58.9,45z"/>
			<path class="st2" d="M72.2,97.1H57.7V78.7c0-0.8-0.5-1.3-1.3-1.3H40.7c-0.8,0-1.3,0.5-1.3,1.3v39.4c0,0.8,0.5,1.3,1.3,1.3h31.5
				c0.8,0,1.3-0.5,1.3-1.3V98.4C73.5,97.6,72.9,97.1,72.2,97.1z M55.1,116.8H41.9v-4h13.2V116.8z M55.1,110.2H41.9v-4h13.2V110.2z
				 M55.1,103.7H41.9v-4h13.2V103.7z M55.1,97.1H41.9v-4h13.2V97.1z M55.1,90.5H41.9v-4h13.2V90.5z M55.1,84H41.9v-4h13.2V84z
				 M70.9,116.8H57.7v-4h13.2V116.8z M70.9,110.2H57.7v-4h13.2V110.2z M70.9,103.7H57.7v-4h13.2V103.7z"/>
			<polygon class="st2" points="102.2,49.8 102.2,47.2 93.1,47.2 93,49.8 			"/>
			<polygon class="st2" points="102.2,53.8 78.6,53.7 78.6,56.3 102.2,56.3 			"/>
			<polygon class="st2" points="103.6,72.2 99.7,72.1 99.6,74.7 103.6,74.7 			"/>
		</g>
	</g>
</g>
<g id="automation" class="st0">
	<g class="st1">
		<g>
			<path class="st2" d="M80,160c-44.1,0-80-35.9-80-80S35.9,0,80,0s80,35.9,80,80S124.1,160,80,160z M80,2.5
				C37.3,2.5,2.5,37.3,2.5,80s34.8,77.5,77.5,77.5s77.5-34.8,77.5-77.5S122.7,2.5,80,2.5z"/>
		</g>
		<g>
			<path class="st2" d="M68.1,88.7c3.3,0,6.1-2.7,6.1-6.1c0-3.3-2.7-6.1-6.1-6.1S62,79.3,62,82.7C62,86,64.8,88.7,68.1,88.7z
				 M68.1,79.2c1.9,0,3.5,1.6,3.5,3.5s-1.6,3.5-3.5,3.5s-3.5-1.6-3.5-3.5C64.6,80.7,66.2,79.2,68.1,79.2z"/>
			<path class="st2" d="M123,107.4H76.5V92.6l0.3-0.3c2.8-2.5,4.5-6.1,4.5-9.9c0-4.7-2.5-9.1-6.6-11.4l-0.2-0.1l-4.8-8.6h15.1
				c0.7,0,1.3-0.6,1.3-1.3v-3.5h21.3v7h-8.3c-0.4,0-0.9,0.2-1.1,0.6s-0.3,0.8-0.1,1.2l4.8,9.6c0.2,0.4,0.7,0.7,1.1,0.7
				c0.2,0,0.4,0,0.6-0.1c0.3-0.2,0.5-0.4,0.6-0.7c0.1-0.3,0.1-0.7-0.1-1l-3.8-7.7h15l-3.8,7.7c-0.2,0.3-0.2,0.7-0.1,1
				s0.3,0.6,0.6,0.7c0.2,0.1,0.4,0.1,0.6,0.1c0.5,0,0.9-0.3,1.1-0.7l4.8-9.6c0.2-0.4,0.2-0.9-0.1-1.2c-0.2-0.4-0.6-0.6-1.1-0.6h-8.3
				v-7.1l0.6-0.2c2.5-0.8,4.1-3.1,4.1-5.7c0-3.3-2.7-6.1-6.1-6.1H86.1v-3.5c0-0.7-0.6-1.3-1.3-1.3H51.3c-1.8,0-3.6,0.5-5.2,1.3
				c-2.5,1.4-4.4,3.7-5.2,6.5s-0.5,5.7,0.9,8.2L55,80.4v0.3c-0.1,0.6-0.1,1.2-0.1,1.7s0,1,0.1,1.5v0.3l-13.9,23.2h-4
				c-0.7,0-1.3,0.6-1.3,1.3v9.6c0,0.7,0.6,1.3,1.3,1.3h86c0.7,0,1.3-0.6,1.3-1.3v-9.6C124.3,108,123.7,107.4,123,107.4z M68.1,71.7
				c5.9,0,10.7,4.8,10.7,10.7S73.9,93,68.1,93c-5.9,0-10.7-4.8-10.7-10.7S62.2,71.7,68.1,71.7z M68.1,95.6c1.6,0,3.1-0.3,4.6-0.8
				l1.3-0.5v13.1H44.1l11.8-19.7l0.8,1.3C59,93.1,63.4,95.6,68.1,95.6z M69,69.2c-0.4,0-0.7,0-0.9,0c-4.6,0-8.8,2.4-11.3,6.3
				L56,76.8L44.1,55.3c-2.2-4-0.7-9,3.2-11.2c1.2-0.7,2.6-1,4-1c3,0,5.8,1.6,7.3,4.3l12.1,22L69,69.2z M58.6,43.1h24.9v16.5H68.3
				l-7.4-13.5c-0.3-0.5-0.6-1-1-1.5L58.6,43.1z M121.7,109.9v7H38.3v-7H121.7z M108.7,47.8c1.9,0,3.5,1.6,3.5,3.5s-1.6,3.5-3.5,3.5
				s-3.5-1.6-3.5-3.5C105.2,49.4,106.7,47.8,108.7,47.8z M102.6,51.3c0,0.8,0.1,1.5,0.4,2.2l0.5,1.3H86.1v-7h17.5l-0.5,1.3
				C102.7,49.8,102.6,50.6,102.6,51.3z"/>
		</g>
	</g>
</g>
<g id="HMI" class="st0">
	<g class="st1">
		<g>
			<g>
				<path class="st2" d="M80,160c-44.1,0-80-35.9-80-80S35.9,0,80,0s80,35.9,80,80S124.1,160,80,160z M80,2.5
					C37.3,2.5,2.5,37.3,2.5,80s34.8,77.5,77.5,77.5s77.5-34.8,77.5-77.5S122.7,2.5,80,2.5z"/>
			</g>
		</g>
		<g>
			<path class="st2" d="M94.4,112.2H65.6c-0.7,0-1.3,0.6-1.3,1.3s0.6,1.3,1.3,1.3h28.7c0.7,0,1.3-0.6,1.3-1.3S95.1,112.2,94.4,112.2
				z"/>
			<path class="st2" d="M97.5,70.7c-2.5,0-4.5,2-4.5,4.5s2,4.5,4.5,4.5s4.5-2,4.5-4.5S100,70.7,97.5,70.7z M97.5,77.1
				c-1,0-1.9-0.8-1.9-1.9c0-1,0.9-1.9,1.9-1.9s1.9,0.8,1.9,1.9C99.4,76.3,98.6,77.1,97.5,77.1z"/>
			<path class="st2" d="M66.9,75.2c0-2.5-2-4.5-4.5-4.5s-4.5,2-4.5,4.5s2,4.5,4.5,4.5S66.9,77.7,66.9,75.2z M63.8,76.6
				c-0.4,0.4-0.8,0.6-1.3,0.6c-1,0-1.9-0.8-1.9-1.9c0-1,0.8-1.9,1.9-1.9c1,0,1.9,0.8,1.9,1.9C64.3,75.7,64.2,76.2,63.8,76.6z"/>
			<path class="st2" d="M91.2,125H68.8c-0.7,0-1.3,0.6-1.3,1.3s0.6,1.3,1.3,1.3h22.3c0.7,0,1.3-0.6,1.3-1.3S91.9,125,91.2,125z"/>
			<path class="st2" d="M94.4,89.9H65.6c-0.7,0-1.3,0.6-1.3,1.3v6.4c0,0.7,0.6,1.3,1.3,1.3h28.7c0.7,0,1.3-0.6,1.3-1.3v-6.4
				C95.7,90.5,95.1,89.9,94.4,89.9z M73.9,96.3h-7v-3.8h7V96.3z M83.5,96.3h-7v-3.8h7V96.3z M93.1,96.3h-7v-3.8h7V96.3z"/>
			<path class="st2" d="M91.2,118.6H68.8c-0.7,0-1.3,0.6-1.3,1.3c0,0.7,0.6,1.3,1.3,1.3h22.3c0.7,0,1.3-0.6,1.3-1.3
				C92.5,119.2,91.9,118.6,91.2,118.6z"/>
		</g>
		<path class="st2" d="M123.1,77.1c-1.9,0-3.6,1.2-4.2,3l-0.1,0.2h-4V65.6c0-4.2-3.4-7.7-7.7-7.7H95.6v-0.3c-0.3-2-1.1-3.9-2.2-5.5
			V52c0-0.1-0.1-0.1-0.2-0.2c-0.1-0.1-0.1-0.1-0.2-0.2c-2.1-2.8-5.4-5-8.9-5.9c-0.1,0-0.2-0.1-0.3-0.1c-0.3-0.1-0.5-0.1-0.8-0.2
			c-0.5-0.1-1-0.2-1.4-0.2h-0.3v-4.1l0.2-0.1c1.8-0.6,3-2.3,3-4.2c0-2.5-2-4.5-4.5-4.5l0,0c-2.5,0-4.5,2-4.5,4.5
			c0,1.9,1.2,3.6,3,4.2l0.2,0.1v4.1h-0.3c-0.5,0.1-0.9,0.1-1.4,0.2c-0.3,0.1-0.5,0.1-0.8,0.2c-0.1,0-0.2,0.1-0.3,0.1
			c-3.5,1-6.8,3.1-8.9,5.9c-0.1,0.1-0.1,0.1-0.2,0.2c-0.1,0.1-0.1,0.1-0.2,0.2v0.1c-1.1,1.6-1.9,3.4-2.2,5.5v0.3H52.9
			c-4.2,0-7.7,3.4-7.7,7.7v14.7h-4l-0.1-0.2c-0.6-1.8-2.3-3-4.2-3c-2.5,0-4.5,2-4.5,4.5s2,4.5,4.5,4.5c1.9,0,3.6-1.2,4.2-3l0.1-0.2
			h4v17.8c0,4.2,3.4,7.7,7.7,7.7h54.2c4.2,0,7.7-3.4,7.7-7.7V82.9h4l0.1,0.2c0.6,1.8,2.3,3,4.2,3c2.5,0,4.5-2,4.5-4.5
			S125.5,77.1,123.1,77.1z M36.9,83.5c-1,0-1.9-0.8-1.9-1.9c0-1,0.8-1.9,1.9-1.9s1.9,0.8,1.9,1.9C38.8,82.6,38,83.5,36.9,83.5z
			 M78.1,36.9c0-1,0.8-1.9,1.9-1.9s1.9,0.9,1.9,1.9s-0.8,1.9-1.9,1.9C79,38.8,78.1,38,78.1,36.9z M69.2,53.1L69.2,53.1
			c2.1-2.5,5.1-4.3,8.1-5c0.3-0.1,0.5-0.1,0.8-0.2c0.2,0,0.3-0.1,0.5-0.1c0.5-0.1,0.9-0.1,1.4-0.1l0,0l0,0c0.5,0,0.9,0,1.4,0.1
			c0.2,0,0.4,0.1,0.6,0.1s0.5,0.1,0.7,0.1c2.9,0.7,5.8,2.3,7.8,4.6c0.1,0.1,0.1,0.1,0.1,0.2c1.2,1.5,2.1,3.2,2.3,5H67
			C67.3,56.2,68.1,54.5,69.2,53.1z M112.2,100.7c0,2.8-2.3,5.1-5.1,5.1H52.9c-2.8,0-5.1-2.3-5.1-5.1V65.6c0-2.8,2.3-5.1,5.1-5.1
			h41.5l0,0l0,0h12.8c2.8,0,5.1,2.3,5.1,5.1L112.2,100.7L112.2,100.7z M123.1,83.5c-1,0-1.9-0.8-1.9-1.9c0-1,0.8-1.9,1.9-1.9
			c1,0,1.9,0.8,1.9,1.9C125,82.6,124.1,83.5,123.1,83.5z"/>
	</g>
</g>
<g id="Mobile">
	<g>
		<g>
			<g>
				<path class="st2" d="M80,160c-44.1,0-80-35.9-80-80S35.9,0,80,0s80,35.9,80,80S124.1,160,80,160z M80,2.5
					C37.3,2.5,2.5,37.3,2.5,80s34.8,77.5,77.5,77.5s77.5-34.8,77.5-77.5S122.7,2.5,80,2.5z"/>
			</g>
		</g>
		<g>
			<path class="st2" d="M80,120.3c3.2,0,5.8-2.6,5.8-5.8c0-3.2-2.6-5.8-5.8-5.8s-5.8,2.6-5.8,5.8C74.2,117.7,76.8,120.3,80,120.3z
				 M80,111.3c1.8,0,3.2,1.4,3.2,3.2c0,1.8-1.4,3.2-3.2,3.2s-3.2-1.4-3.2-3.2C76.7,112.8,78.2,111.3,80,111.3z"/>
			<path class="st2" d="M81.5,39.7h-6c-0.7,0-1.3,0.6-1.3,1.3s0.6,1.3,1.3,1.3h6c0.7,0,1.3-0.6,1.3-1.3S82.2,39.7,81.5,39.7z"/>
			<path class="st2" d="M87.5,39.7H86c-0.7,0-1.3,0.6-1.3,1.3s0.6,1.3,1.3,1.3h1.5c0.7,0,1.3-0.6,1.3-1.3S88.2,39.7,87.5,39.7z"/>
			<path class="st2" d="M106.8,53.2V41.6c0-3.5-2.9-6.4-6.4-6.4H62.5c-3.5,0-6.4,2.9-6.4,6.4v76.8c0,3.5,2.9,6.4,6.4,6.4h37.8
				c3.5,0,6.4-2.9,6.4-6.4V84.3h27V53.2H106.8z M58.7,106.8h45.5v11.6c0,2.1-1.7,3.8-3.8,3.8H62.5c-2.1,0-3.8-1.7-3.8-3.8V106.8z
				 M104.2,44.2H58.7v-2.6c0-2.1,1.7-3.8,3.8-3.8h37.8c2.1,0,3.8,1.7,3.8,3.8L104.2,44.2L104.2,44.2z M85.7,89.4v-7.7h-6v-26h51.5
				v26H96L85.7,89.4z M96.9,84.3h7.3v20H58.7V46.8h45.5v6.4h-27v31.1h6v10.3L96.9,84.3z"/>
			<path class="st2" d="M87.5,66.3h15c0.7,0,1.3-0.6,1.3-1.3c0-0.7-0.6-1.3-1.3-1.3h-15c-0.7,0-1.3,0.6-1.3,1.3S86.8,66.3,87.5,66.3
				z"/>
			<path class="st2" d="M123.5,71.2h-36c-0.7,0-1.3,0.6-1.3,1.3s0.6,1.3,1.3,1.3h36c0.7,0,1.3-0.6,1.3-1.3S124.2,71.2,123.5,71.2z"
				/>
		</g>
	</g>
</g>
<g id="guide">
</g>
</svg>
