<?xml version="1.0" encoding="utf-8"?>
<!-- Generator: Adobe Illustrator 21.1.0, SVG Export Plug-In . SVG Version: 6.00 Build 0)  -->
<svg version="1.1" id="Layer_1" xmlns="http://www.w3.org/2000/svg" xmlns:xlink="http://www.w3.org/1999/xlink" x="0px" y="0px"
	 viewBox="0 0 160 160" style="enable-background:new 0 0 160 160;" xml:space="preserve">
<style type="text/css">
	.st0{fill:#12A89D;}
</style>
<g>
	<g>
		<path class="st0" d="M80,160c-44.1,0-80-35.9-80-80S35.9,0,80,0s80,35.9,80,80S124.1,160,80,160z M80,2.5
			C37.3,2.5,2.5,37.3,2.5,80s34.8,77.5,77.5,77.5s77.5-34.8,77.5-77.5S122.7,2.5,80,2.5z"/>
	</g>
</g>
<g>
	<path class="st0" d="M102.5,52.7c0-0.2,0-0.4,0-0.7c0-11.7-9.6-21.3-21.3-21.3c-8.4,0-15.6,5.1-19,12.2c-1.5-0.7-3.1-1.2-4.9-1.2
		c-5.4,0-9.9,4.3-10.7,9.5c-6.4,2.2-11,8.1-11,15.3c0,9.1,7.3,16.7,16.3,16.7h50.3c8.2,0,14.9-7.1,14.9-15.4
		C117.2,59.5,110.7,52.7,102.5,52.7z M102.2,80.1l-0.6,0.1H52.1c-7.4,0-13.5-6.4-13.5-13.9c0-5.8,3.7-10.6,9.1-12.5l1.5-0.5l0.3-1.6
		c0.7-3.9,4-7.2,8-7.2c1.3,0,2.5,0.3,3.6,0.9l2.5,1.2l1.2-2.5c3-6.4,9.5-10.6,16.5-10.6c10.1,0,18.4,8,18.4,18.2c0,2.4,0,3.7,0,3.7
		h2.8c6.7,0.1,11.9,5.6,11.9,12.3S108.9,80.1,102.2,80.1z"/>
	<g>
		<g>
			<path class="st0" d="M62.4,121.3h55.4c1.1,0,2.1-0.9,2.1-2.1V83.6c0-1.1-0.9-2.1-2.1-2.1H62.4c-1.1,0-2.1,0.9-2.1,2.1v35.6
				C60.4,120.3,61.3,121.3,62.4,121.3z M62.2,83.6c0-0.2,0.1-0.3,0.3-0.3h55.4c0.2,0,0.3,0.1,0.3,0.3v35.6c0,0.2-0.1,0.3-0.3,0.3
				H62.4c-0.2,0-0.3-0.1-0.3-0.3L62.2,83.6L62.2,83.6z M124.4,122.9v1.7c0,0.4-0.4,0.8-0.8,0.8H56.7c-0.4,0-0.8-0.4-0.8-0.8v-1.7H84
				c0.1,0.5,0.6,0.8,1.1,0.8h10.1c0.5,0,0.9-0.3,1.1-0.8H124.4z"/>
		</g>
		<path class="st0" d="M52.3,101.3H42.2c-1,0-1.8,0.8-1.8,1.8v20.5c0,1,0.8,1.8,1.8,1.8h10.1c1,0,1.8-0.8,1.8-1.8v-20.5
			C54.1,102.1,53.3,101.3,52.3,101.3z M41.2,104.5h12v15.2h-12V104.5z M42.2,102.1h10.1c0.5,0,1,0.4,1,1v0.6h-12v-0.6
			C41.2,102.5,41.7,102.1,42.2,102.1z M52.3,124.5H42.2c-0.5,0-1-0.4-1-1v-3h12v3C53.3,124.1,52.8,124.5,52.3,124.5z"/>
		<path class="st0" d="M47.2,120.9c-0.9,0-1.6,0.7-1.6,1.6s0.7,1.6,1.6,1.6s1.6-0.7,1.6-1.6C48.9,121.6,48.1,120.9,47.2,120.9z
			 M47.2,123.3c-0.4,0-0.8-0.4-0.8-0.8s0.4-0.8,0.8-0.8c0.4,0,0.8,0.4,0.8,0.8C48,123,47.7,123.3,47.2,123.3z"/>
		<path class="st0" d="M45.6,103.3h1.6c0.2,0,0.4-0.2,0.4-0.4s-0.2-0.4-0.4-0.4h-1.6c-0.2,0-0.4,0.2-0.4,0.4S45.4,103.3,45.6,103.3z
			"/>
		<path class="st0" d="M48.5,103.3h0.4c0.2,0,0.4-0.2,0.4-0.4s-0.2-0.4-0.4-0.4h-0.4c-0.2,0-0.4,0.2-0.4,0.4S48.2,103.3,48.5,103.3z
			"/>
	</g>
</g>
</svg>
