<?xml version="1.0" encoding="utf-8"?>
<!-- Generator: Adobe Illustrator 21.1.0, SVG Export Plug-In . SVG Version: 6.00 Build 0)  -->
<svg version="1.1" id="Livello_1" xmlns="http://www.w3.org/2000/svg" xmlns:xlink="http://www.w3.org/1999/xlink" x="0px" y="0px"
	 viewBox="0 0 160 160" style="enable-background:new 0 0 160 160;" xml:space="preserve">
<style type="text/css">
	.st0{display:none;}
	.st1{fill:#12A89D;}
	.st2{display:inline;}
	.st3{fill:#FFFFFF;}
</style>
<g id="no" class="st0">
</g>
<g id="CAD" class="st0">
</g>
<g id="vmold" class="st0">
</g>
<g id="dati_1_" class="st0">
</g>
<g id="server" class="st0">
</g>
<g id="img">
</g>
<g id="foto">
</g>
<g id="gestionali">
	<g>
		<g>
			<g>
				<path class="st1" d="M80,160c-44.1,0-80-35.9-80-80C0,35.9,35.9,0,80,0s80,35.9,80,80C160,124.1,124.1,160,80,160z M80,2.5
					C37.3,2.5,2.5,37.3,2.5,80c0,42.7,34.8,77.5,77.5,77.5s77.5-34.8,77.5-77.5C157.5,37.3,122.7,2.5,80,2.5z"/>
			</g>
		</g>
		<g>
			<path class="st1" d="M119.3,66.9H79.9c-0.8,0-1.3,0.5-1.3,1.3v49.9c0,0.8,0.5,1.3,1.3,1.3h39.4c0.8,0,1.3-0.5,1.3-1.3V68.2
				C120.6,67.4,120.1,66.9,119.3,66.9z M118,116.8l-36.8,0V80l36.8,0L118,116.8z M118,77.4l-36.8,0v-2.7l15.8,0l0-2.6l-15.8,0l0-2.7
				l36.8,0L118,77.4z"/>
			<polygon class="st1" points="91.8,82.7 87.9,82.6 87.8,85.2 91.7,85.2 			"/>
			<polygon class="st1" points="98.3,82.7 94.4,82.6 94.4,85.2 98.3,85.2 			"/>
			<polygon class="st1" points="104.9,82.7 101,82.6 101,85.2 104.9,85.2 			"/>
			<polygon class="st1" points="111.5,82.7 107.6,82.6 107.5,85.2 111.4,85.2 			"/>
			<polygon class="st1" points="90.5,89.2 85.2,89.2 85.2,91.8 90.4,91.8 			"/>
			<polygon class="st1" points="98.3,89.2 93.1,89.2 93.1,91.8 98.3,91.8 			"/>
			<polygon class="st1" points="106.2,89.2 101,89.2 101,91.8 106.2,91.8 			"/>
			<polygon class="st1" points="108.8,91.8 114.1,91.8 114.1,89.2 108.9,89.2 			"/>
			<polygon class="st1" points="90.5,94.5 85.2,94.4 85.2,97 90.4,97 			"/>
			<polygon class="st1" points="98.3,94.5 93.1,94.4 93.1,97 98.3,97 			"/>
			<polygon class="st1" points="106.2,94.5 101,94.4 101,97 106.2,97 			"/>
			<polygon class="st1" points="108.8,97 114.1,97 114.1,94.5 108.9,94.4 			"/>
			<polygon class="st1" points="90.5,99.7 85.2,99.7 85.2,102.3 90.4,102.3 			"/>
			<polygon class="st1" points="98.3,99.7 93.1,99.7 93.1,102.3 98.3,102.3 			"/>
			<polygon class="st1" points="106.2,99.7 101,99.7 101,102.3 106.2,102.3 			"/>
			<polygon class="st1" points="108.8,102.3 114.1,102.3 114.1,99.7 108.9,99.7 			"/>
			<polygon class="st1" points="90.5,105 85.2,105 85.2,107.5 90.4,107.5 			"/>
			<polygon class="st1" points="98.3,105 93.1,105 93.1,107.5 98.3,107.5 			"/>
			<polygon class="st1" points="106.2,105 101,105 101,107.5 106.2,107.5 			"/>
			<polygon class="st1" points="108.8,107.5 114.1,107.5 114.1,105 108.9,105 			"/>
			<polygon class="st1" points="90.5,110.2 85.2,110.2 85.2,112.8 90.4,112.8 			"/>
			<polygon class="st1" points="98.3,110.2 93.1,110.2 93.1,112.8 98.3,112.8 			"/>
			<polygon class="st1" points="106.2,110.2 101,110.2 101,112.8 106.2,112.8 			"/>
			<polygon class="st1" points="108.8,112.8 114.1,112.8 114.1,110.2 108.9,110.2 			"/>
			<path class="st1" d="M45.7,59h14.4c0.8,0,1.3-0.5,1.3-1.3l0-14.5l44.7,0l0,18.4l2.6,0V41.9c0-0.8-0.5-1.3-1.3-1.3H60.2
				c-0.1,0-0.2,0-0.4,0.1l-0.1,0c-0.1,0.1-0.1,0.1-0.2,0.1c-0.1,0-0.1,0.1-0.2,0.1L43.5,56.8c-0.1,0.1-0.1,0.1-0.1,0.2
				c0,0.1-0.1,0.1-0.1,0.2v0.1c0,0.1,0,0.1-0.1,0.2c0,0.1-0.1,0.1-0.1,0.2l0,14.4h2.6L45.7,59z M58.9,45l0,11.4l-11.3-0.1L58.9,45z"
				/>
			<path class="st1" d="M72.2,97.1l-14.5,0V78.7c0-0.8-0.5-1.3-1.3-1.3H40.7c-0.8,0-1.3,0.5-1.3,1.3v39.4c0,0.8,0.5,1.3,1.3,1.3
				h31.5c0.8,0,1.3-0.5,1.3-1.3V98.4C73.5,97.6,72.9,97.1,72.2,97.1z M55.1,116.8l-13.2,0v-4l13.2,0L55.1,116.8z M55.1,110.2
				l-13.2,0v-4l13.2,0L55.1,110.2z M55.1,103.7l-13.2,0v-4l13.2,0L55.1,103.7z M55.1,97.1l-13.2,0v-4l13.2,0L55.1,97.1z M55.1,90.5
				l-13.2,0v-4l13.2,0L55.1,90.5z M55.1,84l-13.2,0v-4l13.2,0L55.1,84z M70.9,116.8l-13.2,0v-4l13.2,0L70.9,116.8z M70.9,110.2
				l-13.2,0v-4l13.2,0L70.9,110.2z M70.9,103.7l-13.2,0v-4l13.2,0L70.9,103.7z"/>
			<polygon class="st1" points="102.2,49.8 102.2,47.2 93.1,47.2 93,49.8 			"/>
			<polygon class="st1" points="102.2,53.8 78.6,53.7 78.6,56.3 102.2,56.3 			"/>
			<polygon class="st1" points="103.6,72.2 99.7,72.1 99.6,74.7 103.6,74.7 			"/>
		</g>
	</g>
</g>
<g id="automation" class="st0">
	<g class="st2">
		<g>
			<path class="st3" d="M80,160c-44.1,0-80-35.9-80-80C0,35.9,35.9,0,80,0s80,35.9,80,80C160,124.1,124.1,160,80,160z M80,2.5
				C37.3,2.5,2.5,37.3,2.5,80c0,42.7,34.8,77.5,77.5,77.5s77.5-34.8,77.5-77.5C157.5,37.3,122.7,2.5,80,2.5z"/>
		</g>
		<g>
			<path class="st3" d="M68.1,88.7c3.3,0,6.1-2.7,6.1-6.1c0-3.3-2.7-6.1-6.1-6.1S62,79.3,62,82.7C62,86,64.8,88.7,68.1,88.7z
				 M68.1,79.2c1.9,0,3.5,1.6,3.5,3.5c0,1.9-1.6,3.5-3.5,3.5s-3.5-1.6-3.5-3.5C64.6,80.7,66.2,79.2,68.1,79.2z"/>
			<path class="st3" d="M123,107.4H76.5V92.6l0.3-0.3c2.8-2.5,4.5-6.1,4.5-9.9c0-4.7-2.5-9.1-6.6-11.4l-0.2-0.1l-4.8-8.6h15.1
				c0.7,0,1.3-0.6,1.3-1.3v-3.5h21.3v7h-8.3c-0.4,0-0.9,0.2-1.1,0.6c-0.2,0.4-0.3,0.8-0.1,1.2l4.8,9.6c0.2,0.4,0.7,0.7,1.1,0.7
				c0.2,0,0.4,0,0.6-0.1c0.3-0.2,0.5-0.4,0.6-0.7c0.1-0.3,0.1-0.7-0.1-1l-3.8-7.7h15l-3.8,7.7c-0.2,0.3-0.2,0.7-0.1,1
				c0.1,0.3,0.3,0.6,0.6,0.7c0.2,0.1,0.4,0.1,0.6,0.1c0.5,0,0.9-0.3,1.1-0.7l4.8-9.6c0.2-0.4,0.2-0.9-0.1-1.2
				c-0.2-0.4-0.6-0.6-1.1-0.6h-8.3v-7.1l0.6-0.2c2.5-0.8,4.1-3.1,4.1-5.7c0-3.3-2.7-6.1-6.1-6.1H86.1v-3.5c0-0.7-0.6-1.3-1.3-1.3
				l-33.5,0c-1.8,0-3.6,0.5-5.2,1.3c-2.5,1.4-4.4,3.7-5.2,6.5c-0.8,2.8-0.5,5.7,0.9,8.2L55,80.4l0,0.3c-0.1,0.6-0.1,1.2-0.1,1.7
				c0,0.5,0,1,0.1,1.5l0,0.3l-13.9,23.2h-4c-0.7,0-1.3,0.6-1.3,1.3v9.6c0,0.7,0.6,1.3,1.3,1.3h86c0.7,0,1.3-0.6,1.3-1.3v-9.6
				C124.3,108,123.7,107.4,123,107.4z M68.1,71.7c5.9,0,10.7,4.8,10.7,10.7S73.9,93,68.1,93c-5.9,0-10.7-4.8-10.7-10.7
				S62.2,71.7,68.1,71.7z M68.1,95.6c1.6,0,3.1-0.3,4.6-0.8l1.3-0.5v13.1H44.1l11.8-19.7l0.8,1.3C59,93.1,63.4,95.6,68.1,95.6z
				 M69,69.2c-0.4,0-0.7,0-0.9,0c-4.6,0-8.8,2.4-11.3,6.3L56,76.8L44.1,55.3c-2.2-4-0.7-9,3.2-11.2c1.2-0.7,2.6-1,4-1
				c3,0,5.8,1.6,7.3,4.3l12.1,22L69,69.2z M58.6,43.1h24.9v16.5H68.3l-7.4-13.5c-0.3-0.5-0.6-1-1-1.5L58.6,43.1z M121.7,109.9v7
				H38.3v-7H121.7z M108.7,47.8c1.9,0,3.5,1.6,3.5,3.5s-1.6,3.5-3.5,3.5s-3.5-1.6-3.5-3.5C105.2,49.4,106.7,47.8,108.7,47.8z
				 M102.6,51.3c0,0.8,0.1,1.5,0.4,2.2l0.5,1.3H86.1v-7h17.5l-0.5,1.3C102.7,49.8,102.6,50.6,102.6,51.3z"/>
		</g>
	</g>
</g>
<g id="HMI" class="st0">
	<g class="st2">
		<g>
			<g>
				<path class="st3" d="M80,160c-44.1,0-80-35.9-80-80C0,35.9,35.9,0,80,0s80,35.9,80,80C160,124.1,124.1,160,80,160z M80,2.5
					C37.3,2.5,2.5,37.3,2.5,80c0,42.7,34.8,77.5,77.5,77.5s77.5-34.8,77.5-77.5C157.5,37.3,122.7,2.5,80,2.5z"/>
			</g>
		</g>
		<g>
			<path class="st3" d="M113.5,86.7c-0.7,0-1.3,0.6-1.3,1.3v12.8c0,2.8-2.3,5.1-5.1,5.1H52.9c-2.8,0-5.1-2.3-5.1-5.1V88
				c0-0.7-0.6-1.3-1.3-1.3c-0.7,0-1.3,0.6-1.3,1.3v12.8c0,4.2,3.4,7.7,7.7,7.7h54.2c4.2,0,7.7-3.4,7.7-7.7V88
				C114.8,87.3,114.2,86.7,113.5,86.7z"/>
			<path class="st3" d="M47.8,81.6v-16c0-2.8,2.3-5.1,5.1-5.1h12.8c0.7,0,1.3-0.6,1.3-1.3c0-6.5,7-11.5,13.1-11.5
				c4.2,0,8.7,2.3,11.2,5.8c0.2,0.3,0.6,0.6,1.1,0.6c0.3,0,0.5-0.1,0.7-0.2c0.3-0.2,0.5-0.5,0.5-0.8s0-0.7-0.2-1
				c-2.6-3.7-7.1-6.3-11.7-6.8l-0.3,0v-4.1l0.2-0.1c1.8-0.6,3-2.3,3-4.2c0-2.5-2-4.5-4.5-4.5s-4.5,2-4.5,4.5c0,1.9,1.2,3.6,3,4.2
				l0.2,0.1v4.1l-0.3,0c-6.1,0.7-13.1,5.5-14,12.4l0,0.3H52.9c-4.2,0-7.7,3.4-7.7,7.7l0,14.7h-4l-0.1-0.2c-0.6-1.8-2.3-3-4.2-3
				c-2.5,0-4.5,2-4.5,4.5s2,4.5,4.5,4.5c1.9,0,3.6-1.2,4.2-3l0.1-0.2h5.3C47.2,82.9,47.8,82.3,47.8,81.6z M78.1,36.9
				c0-1,0.8-1.9,1.9-1.9s1.9,0.9,1.9,1.9c0,1-0.8,1.9-1.9,1.9S78.1,38,78.1,36.9z M36.9,83.5c-1,0-1.9-0.8-1.9-1.9
				c0-1,0.8-1.9,1.9-1.9s1.9,0.8,1.9,1.9C38.8,82.6,38,83.5,36.9,83.5z"/>
			<path class="st3" d="M123.1,77.1c-1.9,0-3.6,1.2-4.2,3l-0.1,0.2h-4V65.6c0-4.2-3.4-7.7-7.7-7.7H72c-0.7,0-1.3,0.6-1.3,1.3
				s0.6,1.3,1.3,1.3h35.1c2.8,0,5.1,2.3,5.1,5.1v16c0,0.7,0.6,1.3,1.3,1.3h5.3l0.1,0.2c0.6,1.8,2.3,3,4.2,3c2.5,0,4.5-2,4.5-4.5
				S125.5,77.1,123.1,77.1z M123.1,83.5c-1,0-1.9-0.8-1.9-1.9c0-1,0.8-1.9,1.9-1.9c1,0,1.9,0.8,1.9,1.9
				C125,82.6,124.1,83.5,123.1,83.5z"/>
			<path class="st3" d="M94.4,112.2H65.6c-0.7,0-1.3,0.6-1.3,1.3s0.6,1.3,1.3,1.3h28.7c0.7,0,1.3-0.6,1.3-1.3S95.1,112.2,94.4,112.2
				z"/>
			<path class="st3" d="M97.5,79.7c2.5,0,4.5-2,4.5-4.5s-2-4.5-4.5-4.5s-4.5,2-4.5,4.5C93.1,77.7,95.1,79.7,97.5,79.7z M97.5,73.3
				c1,0,1.9,0.8,1.9,1.9c0,1-0.8,1.9-1.9,1.9c-1,0-1.9-0.8-1.9-1.9C95.7,74.2,96.5,73.3,97.5,73.3z"/>
			<path class="st3" d="M66.9,75.2c0-2.5-2-4.5-4.5-4.5c-2.5,0-4.5,2-4.5,4.5c0,2.5,2,4.5,4.5,4.5C64.9,79.7,66.9,77.7,66.9,75.2z
				 M63.8,76.6c-0.4,0.4-0.8,0.6-1.3,0.6c-1,0-1.9-0.8-1.9-1.9c0-1,0.8-1.9,1.9-1.9c1,0,1.9,0.8,1.9,1.9
				C64.3,75.7,64.2,76.2,63.8,76.6z"/>
			<path class="st3" d="M91.2,125H68.8c-0.7,0-1.3,0.6-1.3,1.3s0.6,1.3,1.3,1.3h22.3c0.7,0,1.3-0.6,1.3-1.3S91.9,125,91.2,125z"/>
			<path class="st3" d="M64.3,91.2v6.4c0,0.7,0.6,1.3,1.3,1.3h28.7c0.7,0,1.3-0.6,1.3-1.3v-6.4c0-0.7-0.6-1.3-1.3-1.3H65.6
				C64.9,89.9,64.3,90.5,64.3,91.2z M86.1,92.5h7v3.8h-7C86.1,96.3,86.1,92.5,86.1,92.5z M76.5,92.5h7v3.8h-7V92.5z M66.9,92.5h7
				v3.8h-7V92.5z"/>
			<path class="st3" d="M91.2,118.6H68.8c-0.7,0-1.3,0.6-1.3,1.3c0,0.7,0.6,1.3,1.3,1.3h22.3c0.7,0,1.3-0.6,1.3-1.3
				C92.5,119.2,91.9,118.6,91.2,118.6z"/>
		</g>
	</g>
</g>
<g id="Mobile" class="st0">
	<g class="st2">
		<g>
			<g>
				<path class="st3" d="M80,160c-44.1,0-80-35.9-80-80C0,35.9,35.9,0,80,0s80,35.9,80,80C160,124.1,124.1,160,80,160z M80,2.5
					C37.3,2.5,2.5,37.3,2.5,80c0,42.7,34.8,77.5,77.5,77.5s77.5-34.8,77.5-77.5C157.5,37.3,122.7,2.5,80,2.5z"/>
			</g>
		</g>
		<g>
			<path class="st3" d="M80,120.3c3.2,0,5.8-2.6,5.8-5.8c0-3.2-2.6-5.8-5.8-5.8s-5.8,2.6-5.8,5.8C74.2,117.7,76.8,120.3,80,120.3z
				 M80,111.3c1.8,0,3.2,1.4,3.2,3.2c0,1.8-1.4,3.2-3.2,3.2s-3.2-1.4-3.2-3.2C76.7,112.8,78.2,111.3,80,111.3z"/>
			<path class="st3" d="M81.5,39.7h-6c-0.7,0-1.3,0.6-1.3,1.3s0.6,1.3,1.3,1.3h6c0.7,0,1.3-0.6,1.3-1.3S82.2,39.7,81.5,39.7z"/>
			<path class="st3" d="M87.5,39.7H86c-0.7,0-1.3,0.6-1.3,1.3s0.6,1.3,1.3,1.3h1.5c0.7,0,1.3-0.6,1.3-1.3S88.2,39.7,87.5,39.7z"/>
			<path class="st3" d="M106.8,53.2V41.6c0-3.5-2.9-6.4-6.4-6.4H62.5c-3.5,0-6.4,2.9-6.4,6.4v76.8c0,3.5,2.9,6.4,6.4,6.4h37.8
				c3.5,0,6.4-2.9,6.4-6.4V84.3h27V53.2H106.8z M58.7,106.8h45.5v11.6c0,2.1-1.7,3.8-3.8,3.8H62.5c-2.1,0-3.8-1.7-3.8-3.8V106.8z
				 M104.2,44.2H58.7v-2.6c0-2.1,1.7-3.8,3.8-3.8h37.8c2.1,0,3.8,1.7,3.8,3.8V44.2z M85.7,89.4v-7.7h-6v-26h51.5v26H96L85.7,89.4z
				 M96.9,84.3h7.3v20H58.7V46.8h45.5v6.4h-27v31.1h6v10.3L96.9,84.3z"/>
			<path class="st3" d="M87.5,66.3h15c0.7,0,1.3-0.6,1.3-1.3c0-0.7-0.6-1.3-1.3-1.3h-15c-0.7,0-1.3,0.6-1.3,1.3
				C86.2,65.7,86.8,66.3,87.5,66.3z"/>
			<path class="st3" d="M123.5,71.2h-36c-0.7,0-1.3,0.6-1.3,1.3s0.6,1.3,1.3,1.3h36c0.7,0,1.3-0.6,1.3-1.3S124.2,71.2,123.5,71.2z"
				/>
		</g>
	</g>
</g>
<g id="guide">
</g>
</svg>
