<?xml version="1.0" encoding="utf-8"?>
<!-- Generator: Adobe Illustrator 16.0.4, SVG Export Plug-In . SVG Version: 6.00 Build 0)  -->
<!DOCTYPE svg PUBLIC "-//W3C//DTD SVG 1.1//EN" "http://www.w3.org/Graphics/SVG/1.1/DTD/svg11.dtd">
<svg version="1.1" id="Livello_1" xmlns="http://www.w3.org/2000/svg" xmlns:xlink="http://www.w3.org/1999/xlink" x="0px" y="0px"
	 width="28.086px" height="26px" viewBox="0 0 28.086 26" enable-background="new 0 0 28.086 26" xml:space="preserve">
<g>
	<g>
		<path fill="#FFFFFF" d="M26,12.998C26,5.822,20.18,0,13,0C5.821,0,0,5.822,0,12.998C0,20.178,5.821,26,13,26
			C20.18,26,26,20.178,26,12.998z"/>
	</g>
	<g>
		
			<line fill="none" stroke="#E84D18" stroke-width="3" stroke-linecap="round" stroke-miterlimit="10" x1="18.872" y1="7.186" x2="7.129" y2="18.814"/>
		
			<line fill="none" stroke="#E84D18" stroke-width="3" stroke-linecap="round" stroke-miterlimit="10" x1="18.815" y1="18.871" x2="7.186" y2="7.129"/>
	</g>
</g>
<g display="none">
	<g display="inline">
		<g>
			<path fill="#FFFFFF" d="M26,12.998C26,5.822,20.18,0,13,0C5.821,0,0,5.822,0,12.998C0,20.178,5.821,26,13,26
				C20.18,26,26,20.178,26,12.998z"/>
		</g>
	</g>
	<g display="inline">
		
			<polyline fill="none" stroke="#9FC641" stroke-width="3" stroke-linecap="round" stroke-linejoin="round" stroke-miterlimit="10" points="
			26.106,4.451 12.381,18.176 7.186,12.801 		"/>
	</g>
</g>
</svg>
