<?xml version="1.0" encoding="utf-8"?>
<!-- Generator: Adobe Illustrator 16.0.4, SVG Export Plug-In . SVG Version: 6.00 Build 0)  -->
<!DOCTYPE svg PUBLIC "-//W3C//DTD SVG 1.1//EN" "http://www.w3.org/Graphics/SVG/1.1/DTD/svg11.dtd">
<svg version="1.1" id="Livello_1" xmlns="http://www.w3.org/2000/svg" xmlns:xlink="http://www.w3.org/1999/xlink" x="0px" y="0px"
	 width="27px" height="32px" viewBox="0 0 27 32" enable-background="new 0 0 27 32" xml:space="preserve">
<g>
	<g>
		<g>
			<path fill="#FFFFFF" d="M14.501,6c5.514,0,9.999,4.486,9.999,10c0,5.514-4.485,10-9.999,10C8.986,26,4.5,21.514,4.5,16
				C4.5,10.486,8.986,6,14.501,6 M14.501,3.5C7.597,3.5,2,9.099,2,16c0,6.904,5.597,12.5,12.501,12.5C21.4,28.5,27,22.904,27,16
				C27,9.099,21.4,3.5,14.501,3.5L14.501,3.5z"/>
		</g>
	</g>
</g>
<g>
	<g>
		
			<polyline fill="none" stroke="#FFFFFF" stroke-width="2.5" stroke-linecap="round" stroke-linejoin="round" stroke-miterlimit="10" points="
			13.363,11.646 17.678,16.043 13.322,20.354 		"/>
	</g>
</g>
</svg>
