<?xml version="1.0" encoding="utf-8"?>
<!-- Generator: Adobe Illustrator 16.0.3, SVG Export Plug-In . SVG Version: 6.00 Build 0)  -->
<!DOCTYPE svg PUBLIC "-//W3C//DTD SVG 1.1//EN" "http://www.w3.org/Graphics/SVG/1.1/DTD/svg11.dtd">
<svg version="1.1" id="Livello_1" xmlns="http://www.w3.org/2000/svg" xmlns:xlink="http://www.w3.org/1999/xlink" x="0px" y="0px"
	 width="980px" height="551px" viewBox="0 0 980 551" enable-background="new 0 0 980 551" xml:space="preserve">
<g id="no" display="none">
	<path display="inline" fill="#00A19A" d="M427.048,329.14h82.442c0.801,0,1.451-0.652,1.451-1.453s-0.65-1.459-1.451-1.459h-82.442
		c-0.802,0-1.455,0.658-1.455,1.459S426.247,329.14,427.048,329.14z"/>
	<g display="inline">
		<path fill="#00A19A" d="M427.048,266.296h58.939c0.801,0,1.455-0.652,1.455-1.455c0-0.802-0.654-1.454-1.455-1.454h-58.939
			c-0.802,0-1.455,0.652-1.455,1.454C425.593,265.643,426.247,266.296,427.048,266.296z"/>
		<path fill="#00A19A" d="M427.048,276.916h35.32c0.801,0,1.453-0.651,1.453-1.452c0-0.805-0.652-1.459-1.453-1.459h-35.32
			c-0.802,0-1.455,0.654-1.455,1.459C425.594,276.264,426.247,276.916,427.048,276.916z"/>
		<path fill="#00A19A" d="M427.048,298.157h30.458c0.805,0,1.455-0.65,1.455-1.453c0-0.801-0.65-1.457-1.455-1.457h-30.458
			c-0.802,0-1.455,0.656-1.455,1.457C425.594,297.507,426.247,298.157,427.048,298.157z"/>
		<path fill="#00A19A" d="M509.49,295.247h-43.504c-0.805,0-1.456,0.656-1.456,1.457c0,0.803,0.65,1.453,1.456,1.453h43.504
			c0.801,0,1.451-0.65,1.451-1.453C510.941,295.903,510.291,295.247,509.49,295.247z"/>
		<path fill="#00A19A" d="M427.048,319.399h82.442c0.801,0,1.451-0.652,1.451-1.453s-0.65-1.459-1.451-1.459h-82.442
			c-0.802,0-1.455,0.658-1.455,1.459S426.247,319.399,427.048,319.399z"/>
		<path fill="#00A19A" d="M427.048,340.644h55.308c0.8,0,1.453-0.652,1.453-1.457c0-0.799-0.653-1.453-1.453-1.453h-55.308
			c-0.802,0-1.455,0.654-1.455,1.453C425.594,339.991,426.247,340.644,427.048,340.644z"/>
		<path fill="#00A19A" d="M509.49,305.868h-23.502c-0.806,0-1.456,0.656-1.456,1.457c0,0.802,0.65,1.451,1.456,1.451h23.502
			c0.801,0,1.451-0.649,1.451-1.451C510.941,306.524,510.291,305.868,509.49,305.868z"/>
		<path fill="#00A19A" d="M427.048,308.776h50.646c0.805,0,1.457-0.649,1.457-1.451c0-0.801-0.652-1.457-1.457-1.457h-50.646
			c-0.802,0-1.455,0.656-1.455,1.457C425.593,308.127,426.247,308.776,427.048,308.776z"/>
		<path fill="#00A19A" d="M568.545,196.052H455.032c-0.804,0-1.457,0.652-1.457,1.456v5.323h-42.121
			c-0.802,0-1.455,0.652-1.455,1.454V353.49c0,0.803,0.652,1.459,1.455,1.459h113.512c0.804,0,1.459-0.656,1.459-1.459v-5.326
			h42.119c0.801,0,1.455-0.646,1.455-1.448V197.508C570,196.704,569.346,196.052,568.545,196.052z M523.516,352.037H412.909V205.743
			h110.605L523.516,352.037L523.516,352.037z M567.088,345.257h-40.662v-21.999h26.564c0.801,0,1.451-0.653,1.451-1.458
			c0-0.802-0.65-1.454-1.451-1.454h-26.564v-7.728h26.522c0.807,0,1.457-0.649,1.457-1.45c0-0.808-0.65-1.457-1.457-1.457h-26.522
			V302h26.522c0.807,0,1.457-0.65,1.457-1.453c0-0.81-0.65-1.457-1.457-1.457h-26.522v-7.712h26.522
			c0.807,0,1.457-0.647,1.457-1.452c0-0.808-0.65-1.457-1.457-1.457h-26.522v-7.712h2.861c0.801,0,1.455-0.65,1.455-1.454
			c0-0.806-0.654-1.454-1.455-1.454h-2.861v-7.715h26.522c0.807,0,1.457-0.65,1.457-1.456c0-0.801-0.65-1.452-1.457-1.452h-26.522
			v-7.712h26.522c0.807,0,1.457-0.652,1.457-1.453c0-0.804-0.65-1.456-1.457-1.456h-26.522v-7.71h26.522
			c0.807,0,1.457-0.653,1.457-1.456s-0.65-1.452-1.457-1.452h-26.522v-7.712h26.522c0.807,0,1.457-0.654,1.457-1.456
			c0-0.804-0.65-1.455-1.457-1.455h-26.522v-7.711h26.522c0.807,0,1.457-0.652,1.457-1.453c0-0.803-0.65-1.454-1.457-1.454h-26.522
			v-7.695h26.481c0.801,0,1.451-0.653,1.451-1.458c0-0.802-0.65-1.454-1.451-1.454h-26.481v-9.852c0-0.802-0.656-1.454-1.459-1.454
			h-68.479v-3.87h110.601L567.088,345.257L567.088,345.257z"/>
		<path fill="#00A19A" d="M427.048,234.433h58.702c0.801,0,1.451-0.65,1.451-1.454c0-0.802-0.65-1.456-1.451-1.456h-58.702
			c-0.802,0-1.455,0.654-1.455,1.456C425.594,233.782,426.247,234.433,427.048,234.433z"/>
		<path fill="#00A19A" d="M427.048,255.677h82.442c0.801,0,1.451-0.653,1.451-1.458c0-0.802-0.65-1.454-1.451-1.454h-82.442
			c-0.802,0-1.455,0.652-1.455,1.454C425.594,255.023,426.247,255.677,427.048,255.677z"/>
		<path fill="#00A19A" d="M427.048,223.813h82.442c0.801,0,1.451-0.653,1.451-1.458c0-0.801-0.65-1.454-1.451-1.454h-82.442
			c-0.802,0-1.455,0.653-1.455,1.454C425.594,223.16,426.247,223.813,427.048,223.813z"/>
		<path fill="#00A19A" d="M509.49,263.386h-16.541c-0.801,0-1.449,0.652-1.449,1.454c0,0.803,0.648,1.455,1.449,1.455h16.541
			c0.801,0,1.451-0.652,1.451-1.455C510.941,264.039,510.291,263.386,509.49,263.386z"/>
		<path fill="#00A19A" d="M509.49,274.005h-40.46c-0.802,0.002-1.455,0.656-1.455,1.459c0,0.801,0.653,1.452,1.455,1.452h40.46
			c0.801,0,1.451-0.651,1.451-1.452C510.941,274.659,510.291,274.005,509.49,274.005z"/>
	</g>
</g>
<g id="CAD">
	<g>
		<path fill="#00A19A" d="M399.685,126.372V175.9h247.493v-49.529L399.685,126.372L399.685,126.372z M640.823,169.547H406.038
			v-36.821h234.785V169.547z"/>
		<path fill="#00A19A" d="M399.685,258.928h247.493V209.4H399.685V258.928z M406.038,215.752h234.785v36.822H406.038V215.752z"/>
		<path fill="#00A19A" d="M399.685,341.957h247.493v-49.528H399.685V341.957z M406.038,298.781h234.785v36.821H406.038V298.781z"/>
		<path fill="#00A19A" d="M399.685,424.983h247.493v-49.528H399.685V424.983z M406.038,381.809h234.785v36.821H406.038V381.809z"/>
		<path fill="#00A19A" d="M350.926,126.016l-18.103,49.765h10.134l3.007-8.807h17.683l2.937,8.807h10.134l-18.173-49.765H350.926z
			 M348.69,158.797l6.289-18.104l6.083,18.104H348.69z"/>
		<path fill="#00A19A" d="M373.642,222.766c0-8.525-5.661-13.978-15.377-13.978h-19.991v49.766h20.829
			c8.878,0,15.237-5.03,15.237-14.329c0-6.64-3.844-9.786-6.85-11.186C370.009,231.854,373.642,228.288,373.642,222.766z
			 M347.991,217.455h9.505c4.124,0,6.43,2.309,6.43,5.733c0,3.424-2.306,5.729-6.43,5.729h-9.505V217.455z M358.125,249.888h-10.133
			v-12.232h10.133c4.403,0,6.5,2.726,6.5,6.081C364.625,247.092,362.528,249.888,358.125,249.888z"/>
		<path fill="#00A19A" d="M341.628,337.253c3.425,3.354,7.62,5.243,13.351,5.243c9.229,0,16.427-5.314,18.244-15.729h-9.855
			c-0.979,4.058-3.566,7.062-8.389,7.062c-2.655,0-4.823-0.976-6.221-2.586c-1.815-2.097-2.445-4.541-2.445-14.051
			c0-9.505,0.629-11.949,2.445-14.047c1.398-1.61,3.565-2.586,6.221-2.586c4.823,0,7.34,3.002,8.319,7.058h9.925
			c-1.816-10.416-8.948-15.729-18.244-15.729c-5.731,0-9.925,1.887-13.351,5.246c-4.961,4.959-5.031,10.553-5.031,20.058
			C336.597,326.7,336.667,332.288,341.628,337.253z"/>
		<path fill="#00A19A" d="M356.239,375.209h-17.964v49.768h17.964c6.779,0,11.461-2.308,15.027-7.271
			c3.075-4.263,3.146-9.365,3.146-17.614c0-8.246-0.071-13.351-3.146-17.614C367.7,377.515,363.018,375.209,356.239,375.209z
			 M362.668,413.231c-1.606,2.026-3.983,3.076-7.269,3.076h-7.408v-32.435h7.408c3.286,0,5.663,1.05,7.269,3.077
			c1.818,2.165,2.027,5.312,2.027,13.14C364.695,407.922,364.486,411.064,362.668,413.231z"/>
	</g>
</g>
<g id="vmold" display="none">
	<g display="inline">
		<g>
			<g>
				<g>
					<g>
						<path fill="#00A19A" d="M539.928,443.645h-2.131v-30.56h16.747v1.968h-14.616v12.955h13.797v1.985h-13.797V443.645z"/>
						<path fill="#00A19A" d="M581.755,413.086v19.772c0,3.511-1.018,6.257-3.049,8.235c-2.04,1.979-4.874,2.969-8.511,2.969
							c-3.541,0-6.299-0.996-8.288-2.98c-1.985-1.984-2.979-4.756-2.979-8.306v-19.69h2.154v19.772c0,2.94,0.814,5.229,2.447,6.867
							c1.63,1.637,3.934,2.454,6.917,2.454c2.911,0,5.171-0.806,6.771-2.413c1.604-1.608,2.406-3.838,2.406-6.7v-19.98H581.755z"/>
						<path fill="#00A19A" d="M590.076,443.645v-30.56h2.131v28.554h14.568v2.006H590.076z"/>
						<path fill="#00A19A" d="M612.043,443.645v-30.56h2.133v28.554h14.567v2.006H612.043z"/>
					</g>
					<g>
						<g>
							<path fill="#00A19A" d="M446.926,444.063h-4.187v-18.571c0-2.336-0.691-4.353-2.022-6.001
								c-1.32-1.641-3.129-2.488-5.307-2.488c-2.225,0-4.135,0.738-5.781,2.175c-1.596,1.43-2.388,3.238-2.388,5.417v19.47h-4.249
								v-19.47c0-2.179-0.794-3.987-2.439-5.417c-1.594-1.437-3.503-2.175-5.731-2.175c-2.174,0-3.924,0.849-5.257,2.488
								c-1.326,1.648-1.959,3.609-1.959,6.001v18.571h-4.196v-18.097c0-3.769,1.063-6.849,3.238-9.123
								c2.018-2.181,4.672-3.4,7.961-3.662c4.405-0.372,7.908,1.534,10.512,5.626c2.599-4.092,6.101-5.998,10.504-5.626
								c3.29,0.262,5.948,1.481,8.018,3.662c2.173,2.274,3.285,5.354,3.285,9.123L446.926,444.063L446.926,444.063z"/>
							<path fill="#00A19A" d="M477.613,440.243c-3.135,3.134-6.9,4.671-11.253,4.516c-4.192-0.105-7.804-1.703-10.723-4.779
								c-2.917-3.081-4.35-6.743-4.35-10.987c0-4.397,1.592-8.227,4.725-11.351c3.127-3.188,6.899-4.732,11.25-4.565
								c4.193,0.152,7.8,1.745,10.722,4.88c2.915,3.073,4.404,6.738,4.404,10.98C482.389,433.293,480.796,437.063,477.613,440.243z
								 M466.413,440.773c3.342,0.162,6.156-0.953,8.492-3.449c2.389-2.494,3.502-5.361,3.448-8.701
								c-0.103-3.188-1.27-5.892-3.448-8.175c-2.179-2.282-4.775-3.394-7.856-3.394c-3.238-0.054-5.943,1.109-8.227,3.394
								c-2.28,2.283-3.397,4.986-3.447,8.229c-0.056,3.18,0.955,5.99,3.129,8.386C460.678,439.448,463.281,440.669,466.413,440.773z
								"/>
							<path fill="#00A19A" d="M490.512,444.063h-4.033v-44.229h4.033V444.063z"/>
							<path fill="#00A19A" d="M525.862,429.101c0.103,4.348-1.436,8.12-4.675,11.301c-3.237,3.132-7.006,4.669-11.359,4.513
								c-4.188-0.102-7.798-1.692-10.721-4.773c-2.915-3.076-4.349-6.742-4.349-10.989c0-4.405,1.595-8.223,4.726-11.354
								c3.127-3.187,6.895-4.721,11.251-4.567c4.454,0.159,8.17,1.966,11.14,5.36v-18.754h3.987V429.101z M509.881,440.936
								c3.35,0.158,6.155-0.957,8.491-3.458c2.388-2.49,3.503-5.354,3.399-8.698c-0.056-3.182-1.221-5.891-3.399-8.174
								c-2.175-2.279-4.773-3.396-7.906-3.396c-3.185-0.056-5.938,1.115-8.223,3.396c-2.283,2.283-3.398,4.992-3.454,8.224
								c-0.051,3.191,1.015,6.001,3.188,8.393C504.151,439.605,506.75,440.826,509.881,440.936z"/>
						</g>
						<path fill="#00A19A" d="M446.926,444.063h-4.187v-18.571c0-2.336-0.691-4.353-2.022-6.001
							c-1.32-1.641-3.129-2.488-5.307-2.488c-2.225,0-4.135,0.738-5.781,2.175c-1.596,1.43-2.388,3.238-2.388,5.417v19.47h-4.249
							v-19.47c0-2.179-0.794-3.987-2.439-5.417c-1.594-1.437-3.503-2.175-5.731-2.175c-2.174,0-3.924,0.849-5.257,2.488
							c-1.326,1.648-1.959,3.609-1.959,6.001v18.571h-4.196v-18.097c0-3.769,1.063-6.849,3.238-9.123
							c2.018-2.181,4.672-3.4,7.961-3.662c4.405-0.372,7.908,1.534,10.512,5.626c2.599-4.092,6.101-5.998,10.504-5.626
							c3.29,0.262,5.948,1.481,8.018,3.662c2.173,2.274,3.285,5.354,3.285,9.123L446.926,444.063L446.926,444.063z"/>
						<polygon fill="#00A19A" points="363.632,413.062 351.256,413.062 366.088,444.059 378.474,444.059 						"/>
						<path fill="#00A19A" d="M414.687,388.942c-0.623,0.023-1.253,0.026-1.835,0.076c-9.553,0.764-17.831,4.659-23.89,11.216
							c-2.017,2.111-3.766,4.482-5.208,7.053l-9.351,19.53l6.188,12.937l12.992-27.146c0.968-1.705,2.134-3.274,3.52-4.727
							c4.18-4.518,9.929-7.189,16.661-7.726c0.3-0.026,0.615-0.026,0.923-0.039L414.687,388.942L414.687,388.942z"/>
					</g>
				</g>
				<g>
					<path fill="#00A19A" d="M364.123,372.729c0,1.577-0.573,2.81-1.718,3.693c-1.147,0.882-2.7,1.324-4.665,1.324
						c-2.127,0-3.764-0.275-4.909-0.82v-2.014c0.736,0.309,1.539,0.555,2.406,0.736c0.866,0.178,1.726,0.269,2.578,0.269
						c1.39,0,2.437-0.267,3.142-0.791c0.703-0.53,1.055-1.262,1.055-2.199c0-0.625-0.126-1.135-0.375-1.532
						c-0.249-0.394-0.666-0.762-1.251-1.096c-0.585-0.337-1.475-0.716-2.668-1.145c-1.67-0.597-2.862-1.306-3.579-2.122
						c-0.717-0.818-1.074-1.886-1.074-3.203c0-1.382,0.521-2.481,1.56-3.3c1.039-0.819,2.413-1.229,4.124-1.229
						c1.784,0,3.422,0.327,4.92,0.982l-0.65,1.816c-1.48-0.625-2.919-0.935-4.318-0.935c-1.105,0-1.97,0.236-2.592,0.713
						c-0.62,0.473-0.933,1.133-0.933,1.974c0,0.624,0.116,1.133,0.345,1.529c0.229,0.396,0.616,0.761,1.16,1.089
						c0.544,0.334,1.376,0.697,2.496,1.102c1.883,0.671,3.177,1.391,3.885,2.162C363.769,370.503,364.123,371.5,364.123,372.729z"/>
					<path fill="#00A19A" d="M383.365,368.507c0,2.872-0.728,5.13-2.179,6.774c-1.453,1.646-3.471,2.466-6.057,2.466
						c-2.642,0-4.681-0.808-6.117-2.425c-1.436-1.615-2.155-3.895-2.155-6.838c0-2.923,0.721-5.188,2.161-6.798
						c1.44-1.604,3.484-2.409,6.135-2.409c2.577,0,4.59,0.817,6.037,2.455C382.639,363.367,383.365,365.625,383.365,368.507z
						 M369.066,368.507c0,2.43,0.52,4.271,1.553,5.526c1.035,1.258,2.539,1.886,4.51,1.886c1.987,0,3.49-0.628,4.505-1.88
						c1.013-1.252,1.521-3.095,1.521-5.532c0-2.415-0.505-4.246-1.516-5.493c-1.013-1.244-2.505-1.869-4.487-1.869
						c-1.988,0-3.499,0.629-4.534,1.884C369.586,364.282,369.066,366.109,369.066,368.507z"/>
					<path fill="#00A19A" d="M387.366,377.5v-17.94h2.085v16.053h7.914v1.89h-9.999V377.5z"/>
					<path fill="#00A19A" d="M415.983,368.507c0,2.872-0.725,5.13-2.179,6.774c-1.453,1.646-3.472,2.466-6.057,2.466
						c-2.642,0-4.682-0.808-6.117-2.425c-1.436-1.615-2.155-3.895-2.155-6.838c0-2.923,0.721-5.188,2.16-6.798
						c1.441-1.604,3.485-2.409,6.136-2.409c2.578,0,4.59,0.817,6.038,2.455C415.258,363.367,415.983,365.625,415.983,368.507z
						 M401.685,368.507c0,2.43,0.519,4.271,1.554,5.526c1.035,1.258,2.538,1.886,4.509,1.886c1.987,0,3.49-0.628,4.505-1.88
						c1.013-1.252,1.521-3.095,1.521-5.532c0-2.415-0.504-4.246-1.516-5.493c-1.012-1.244-2.505-1.869-4.486-1.869
						c-1.988,0-3.499,0.629-4.534,1.884C402.203,364.282,401.685,366.109,401.685,368.507z"/>
					<path fill="#00A19A" d="M437.887,364.787c0,1.816-0.62,3.215-1.858,4.191c-1.24,0.977-3.013,1.467-5.319,1.467h-2.111v7.055
						h-2.085v-17.94h4.649C435.646,359.559,437.887,361.302,437.887,364.787z M428.599,368.654h1.876
						c1.851,0,3.188-0.297,4.016-0.897c0.827-0.597,1.238-1.553,1.238-2.871c0-1.187-0.389-2.068-1.166-2.651
						c-0.777-0.579-1.986-0.868-3.632-0.868h-2.332V368.654z"/>
					<path fill="#00A19A" d="M451.646,377.5h-10.004v-17.94h10.004v1.854h-7.918v5.78h7.437v1.84h-7.437v6.603h7.918V377.5z"/>
					<path fill="#00A19A" d="M457.708,370.038v7.462h-2.085v-17.94h4.918c2.203,0,3.829,0.419,4.879,1.266
						c1.049,0.843,1.575,2.112,1.575,3.805c0,2.369-1.202,3.976-3.607,4.811l4.874,8.062h-2.468l-4.344-7.462h-3.742V370.038z
						 M457.708,368.246h2.858c1.473,0,2.552-0.291,3.238-0.876c0.688-0.584,1.031-1.462,1.031-2.633
						c0-1.185-0.349-2.041-1.047-2.562c-0.7-0.527-1.824-0.786-3.37-0.786h-2.71L457.708,368.246L457.708,368.246z"/>
					<path fill="#00A19A" d="M477.686,377.5v-17.94h2.086v16.053h7.914v1.89h-10V377.5z"/>
					<path fill="#00A19A" d="M502.008,377.5l-2.229-5.703h-7.193l-2.208,5.703h-2.111l7.093-18.017h1.755l7.059,18.017H502.008z
						 M499.123,369.918l-2.084-5.558c-0.271-0.707-0.549-1.569-0.838-2.592c-0.176,0.784-0.436,1.646-0.771,2.592l-2.11,5.558
						H499.123z"/>
					<path fill="#00A19A" d="M523.411,359.559h2.245l-6.465,17.94h-2.063l-6.432-17.94h2.209l4.123,11.608
						c0.473,1.337,0.849,2.631,1.13,3.893c0.295-1.326,0.678-2.647,1.151-3.964L523.411,359.559z"/>
					<path fill="#00A19A" d="M538.123,377.5h-10v-17.94h10v1.854h-7.914v5.78h7.438v1.84h-7.438v6.603h7.914V377.5z"/>
					<path fill="#00A19A" d="M544.188,370.038v7.462h-2.089v-17.94h4.923c2.2,0,3.826,0.419,4.877,1.266
						c1.053,0.843,1.578,2.112,1.578,3.805c0,2.369-1.201,3.976-3.604,4.811l4.868,8.062h-2.465l-4.346-7.462h-3.742V370.038z
						 M544.188,368.246h2.859c1.473,0,2.552-0.291,3.237-0.876c0.689-0.584,1.032-1.462,1.032-2.633
						c0-1.185-0.353-2.041-1.051-2.562c-0.698-0.527-1.821-0.786-3.367-0.786h-2.711V368.246L544.188,368.246z"/>
					<path fill="#00A19A" d="M567.762,372.729c0,1.577-0.572,2.81-1.72,3.693c-1.146,0.882-2.697,1.324-4.662,1.324
						c-2.129,0-3.766-0.275-4.908-0.82v-2.014c0.735,0.309,1.536,0.555,2.404,0.736c0.868,0.178,1.726,0.269,2.578,0.269
						c1.39,0,2.435-0.267,3.142-0.791c0.702-0.53,1.056-1.262,1.056-2.199c0-0.625-0.127-1.135-0.375-1.532
						c-0.249-0.394-0.667-0.762-1.251-1.096c-0.585-0.337-1.477-0.716-2.667-1.145c-1.67-0.597-2.863-1.306-3.58-2.122
						c-0.718-0.818-1.075-1.886-1.075-3.203c0-1.382,0.521-2.481,1.56-3.3c1.039-0.819,2.413-1.229,4.125-1.229
						c1.781,0,3.423,0.327,4.919,0.982l-0.647,1.816c-1.481-0.625-2.92-0.935-4.32-0.935c-1.104,0-1.97,0.236-2.592,0.713
						c-0.621,0.473-0.934,1.133-0.934,1.974c0,0.624,0.116,1.133,0.347,1.529c0.229,0.396,0.614,0.761,1.159,1.089
						c0.542,0.334,1.376,0.697,2.497,1.102c1.881,0.671,3.177,1.391,3.884,2.162C567.409,370.503,567.762,371.5,567.762,372.729z"/>
					<path fill="#00A19A" d="M571.427,377.5v-17.94h2.089v17.94H571.427z"/>
					<path fill="#00A19A" d="M594.01,368.507c0,2.872-0.727,5.13-2.18,6.774c-1.451,1.646-3.47,2.466-6.057,2.466
						c-2.643,0-4.681-0.808-6.116-2.425c-1.437-1.615-2.152-3.895-2.152-6.838c0-2.923,0.72-5.188,2.161-6.798
						c1.438-1.604,3.484-2.409,6.134-2.409c2.576,0,4.592,0.817,6.039,2.455C593.287,363.367,594.01,365.625,594.01,368.507z
						 M579.713,368.507c0,2.43,0.516,4.271,1.551,5.526c1.037,1.258,2.542,1.886,4.512,1.886c1.989,0,3.489-0.628,4.504-1.88
						c1.016-1.252,1.521-3.095,1.521-5.532c0-2.415-0.506-4.246-1.515-5.493c-1.013-1.244-2.506-1.869-4.486-1.869
						c-1.987,0-3.499,0.629-4.536,1.884C580.229,364.282,579.713,366.109,579.713,368.507z"/>
					<path fill="#00A19A" d="M612.023,377.5h-2.381l-9.805-15.057h-0.096c0.129,1.771,0.193,3.391,0.193,4.86V377.5h-1.93v-17.94
						h2.357l9.783,14.996h0.098c-0.018-0.222-0.055-0.929-0.112-2.128c-0.055-1.199-0.076-2.056-0.059-2.57v-10.298h1.948v17.94
						H612.023z"/>
					<path fill="#00A19A" d="M626.96,377.5h-10.003v-17.94h10.003v1.854h-7.916v5.78h7.437v1.84h-7.437v6.603h7.916V377.5z"/>
				</g>
			</g>
		</g>
		<g>
			<path fill="#00A19A" d="M378.074,106.075V329.93h223.851V106.075H378.074z M595.573,323.576H384.428V112.428h211.146V323.576z"/>
			<path fill="#00A19A" d="M465.604,237.906c-8.121-7.079-18.722-11.382-30.314-11.382c-25.47,0-46.19,20.721-46.19,46.189
				c0,25.473,20.721,46.192,46.19,46.192c25.471,0,46.191-20.721,46.191-46.192c0-11.595-4.304-22.195-11.386-30.315L490,222.494
				l19.904,19.904c-7.081,8.12-11.388,18.722-11.388,30.315c0,25.473,20.722,46.192,46.194,46.192
				c25.468,0,46.191-20.721,46.191-46.192c0-25.469-20.725-46.189-46.191-46.189c-11.595,0-22.196,4.303-30.314,11.382
				l-19.905-19.903l19.905-19.901c8.118,7.08,18.721,11.383,30.314,11.383c25.468,0,46.191-20.723,46.191-46.194
				c0-25.471-20.725-46.191-46.191-46.191c-25.474,0-46.194,20.721-46.194,46.191c0,11.596,4.307,22.197,11.388,30.318L490,213.511
				l-19.904-19.902c7.081-8.121,11.385-18.724,11.385-30.318c0-25.471-20.722-46.191-46.191-46.191
				c-25.47,0-46.19,20.721-46.19,46.191c0,25.472,20.721,46.194,46.19,46.194c11.594,0,22.196-4.303,30.314-11.383l19.904,19.901
				L465.604,237.906z M435.289,312.554c-21.966,0-39.837-17.872-39.837-39.84c0-21.966,17.871-39.837,39.837-39.837
				c21.967,0,39.839,17.871,39.839,39.837C475.127,294.682,457.256,312.554,435.289,312.554z M584.549,272.715
				c0,21.968-17.872,39.84-39.837,39.84c-21.969,0-39.84-17.872-39.84-39.84c0-21.966,17.871-39.837,39.84-39.837
				C566.677,232.878,584.549,250.749,584.549,272.715z M544.712,123.452c21.965,0,39.837,17.872,39.837,39.839
				s-17.872,39.841-39.837,39.841c-21.969,0-39.84-17.874-39.84-39.841S522.743,123.452,544.712,123.452z M395.451,163.291
				c0-21.967,17.871-39.839,39.837-39.839c21.967,0,39.839,17.872,39.839,39.839s-17.872,39.841-39.839,39.841
				C413.322,203.131,395.451,185.258,395.451,163.291z"/>
		</g>
	</g>
</g>
<g id="dati_1_" display="none">
	<g display="inline">
		<path fill="#00A19A" d="M377.859,256.008h103.645c1.696,0,3.08-1.383,3.08-3.081s-1.384-3.081-3.08-3.081H377.859
			c-1.698,0-3.079,1.383-3.079,3.081S376.161,256.008,377.859,256.008z"/>
		<path fill="#00A19A" d="M377.859,278.499h53.624c1.694,0,3.076-1.382,3.076-3.074c0-1.704-1.382-3.09-3.076-3.09h-53.624
			c-1.698,0-3.079,1.387-3.079,3.09C374.78,277.117,376.161,278.499,377.859,278.499z"/>
		<path fill="#00A19A" d="M377.859,323.485h43.325c1.701,0,3.082-1.377,3.082-3.077c0-1.694-1.38-3.086-3.082-3.086h-43.325
			c-1.698,0-3.079,1.392-3.079,3.086C374.78,322.108,376.161,323.485,377.859,323.485z"/>
		<path fill="#00A19A" d="M531.276,323.485c1.696,0,3.072-1.377,3.072-3.077c0-1.694-1.376-3.086-3.072-3.086h-92.134
			c-1.703,0-3.082,1.392-3.082,3.086c0,1.7,1.379,3.077,3.082,3.077H531.276z"/>
		<path fill="#00A19A" d="M377.859,390.967h95.952c1.693,0,3.08-1.38,3.08-3.085c0-1.692-1.386-3.077-3.08-3.077h-95.952
			c-1.698,0-3.079,1.385-3.079,3.077C374.78,389.587,376.161,390.967,377.859,390.967z"/>
		<path fill="#00A19A" d="M377.859,368.472h153.417c1.696,0,3.072-1.381,3.072-3.077c0-1.695-1.376-3.089-3.072-3.089H377.859
			c-1.698,0-3.079,1.394-3.079,3.089C374.78,367.092,376.161,368.472,377.859,368.472z"/>
		<path fill="#00A19A" d="M531.276,339.814h-49.772c-1.704,0-3.083,1.392-3.083,3.087c0,1.696,1.379,3.074,3.083,3.074h49.772
			c1.696,0,3.072-1.378,3.072-3.074C534.35,341.206,532.974,339.814,531.276,339.814z"/>
		<path fill="#00A19A" d="M377.859,345.976h86.079c1.705,0,3.086-1.378,3.086-3.074c0-1.695-1.382-3.087-3.086-3.087h-86.079
			c-1.698,0-3.079,1.392-3.079,3.087C374.78,344.598,376.161,345.976,377.859,345.976z"/>
		<path fill="#00A19A" d="M634.917,128.42H415.944c-1.702,0-3.085,1.385-3.085,3.086v11.273H345.08
			c-1.698,0-3.079,1.381-3.079,3.079V419.49c0,1.7,1.381,3.091,3.079,3.091h218.972c1.701,0,3.091-1.391,3.091-3.091v-11.278h67.773
			c1.696,0,3.081-1.369,3.081-3.068V131.507C637.998,129.805,636.613,128.42,634.917,128.42z M560.979,416.413H348.162V148.947
			h212.816V416.413z M631.832,402.052h-64.689v-47.94h34.99c1.707,0,3.085-1.378,3.085-3.073c0-1.709-1.378-3.086-3.085-3.086
			h-34.99v-16.328h34.99c1.707,0,3.085-1.379,3.085-3.079c0-1.712-1.378-3.085-3.085-3.085h-34.99v-16.33h34.99
			c1.707,0,3.085-1.373,3.085-3.077c0-1.709-1.378-3.086-3.085-3.086h-34.99v-16.331h6.062c1.694,0,3.082-1.381,3.082-3.081
			c0-1.704-1.388-3.082-3.082-3.082h-6.062v-16.338h34.99c1.707,0,3.085-1.376,3.085-3.083c0-1.694-1.378-3.076-3.085-3.076h-34.99
			v-16.332h34.99c1.707,0,3.085-1.382,3.085-3.078c0-1.7-1.378-3.083-3.085-3.083h-34.99v-16.329h34.99
			c1.707,0,3.085-1.384,3.085-3.083s-1.378-3.075-3.085-3.075h-34.99v-16.333h34.99c1.707,0,3.085-1.386,3.085-3.083
			c0-1.703-1.378-3.082-3.085-3.082h-34.99v-16.33h34.99c1.707,0,3.085-1.382,3.085-3.078c0-1.699-1.378-3.079-3.085-3.079h-34.99
			v-22.151c0-1.698-1.389-3.079-3.09-3.079H419.027v-8.197h212.805V402.052z"/>
		<path fill="#00A19A" d="M531.276,182.365H377.859c-1.698,0-3.079,1.385-3.079,3.083c0,1.702,1.381,3.08,3.079,3.08h153.417
			c1.696,0,3.072-1.377,3.072-3.08C534.35,183.75,532.974,182.365,531.276,182.365z"/>
		<path fill="#00A19A" d="M531.276,227.352H377.859c-1.698,0-3.079,1.383-3.079,3.079c0,1.704,1.381,3.088,3.079,3.088h153.417
			c1.696,0,3.072-1.384,3.072-3.088C534.35,228.735,532.974,227.352,531.276,227.352z"/>
		<path fill="#00A19A" d="M531.276,249.845h-35.03c-1.695,0-3.068,1.383-3.068,3.081s1.373,3.081,3.068,3.081h35.03
			c1.696,0,3.072-1.383,3.072-3.081C534.35,251.229,532.974,249.845,531.276,249.845z"/>
		<path fill="#00A19A" d="M531.276,272.334H445.59c-1.698,0.004-3.082,1.391-3.082,3.09c0,1.692,1.382,3.074,3.082,3.074h85.687
			c1.696,0,3.072-1.382,3.072-3.074C534.35,273.72,532.974,272.334,531.276,272.334z"/>
	</g>
</g>
<g id="server" display="none">
	<path display="inline" fill="#00A19A" d="M531.362,262.578c-2.854,0-5.171,2.313-5.171,5.17c0,2.853,2.315,5.166,5.171,5.166
		s5.169-2.313,5.169-5.166C536.531,264.891,534.219,262.578,531.362,262.578z M510.68,262.578c-2.854,0-5.171,2.313-5.171,5.17
		c0,2.853,2.316,5.166,5.171,5.166c2.858,0,5.172-2.313,5.172-5.166C515.852,264.891,513.538,262.578,510.68,262.578z
		 M603.747,376.321c-2.854,0-5.17,2.313-5.17,5.17c0,2.857,2.315,5.172,5.17,5.172c2.858,0,5.166-2.314,5.166-5.172
		C608.913,378.635,606.605,376.321,603.747,376.321z M389.179,254.355c-11.661,0-21.146,9.485-21.146,21.146
		c0,11.661,9.485,21.149,21.146,21.149c11.662,0,21.148-9.488,21.148-21.149C410.328,263.843,400.841,254.355,389.179,254.355z
		 M389.179,290.544c-8.296,0-15.044-6.749-15.044-15.042s6.749-15.042,15.044-15.042c8.295,0,15.043,6.749,15.043,15.042
		S397.474,290.544,389.179,290.544z M541.702,278.088c-2.854,0-5.171,2.316-5.171,5.168c0,2.857,2.315,5.172,5.171,5.172
		c2.858,0,5.175-2.313,5.175-5.172C546.877,280.404,544.561,278.088,541.702,278.088z M521.02,278.088
		c-2.853,0-5.168,2.316-5.168,5.168c0,2.857,2.315,5.172,5.168,5.172c2.855,0,5.173-2.313,5.173-5.172
		C526.191,280.404,523.875,278.088,521.02,278.088z M521.02,376.321c-2.853,0-5.168,2.313-5.168,5.17
		c0,2.857,2.315,5.172,5.168,5.172c2.855,0,5.173-2.314,5.173-5.172C526.192,378.635,523.875,376.321,521.02,376.321z
		 M510.68,360.813c-2.854,0-5.171,2.312-5.171,5.168s2.316,5.171,5.171,5.171c2.858,0,5.172-2.313,5.172-5.171
		C515.852,363.123,513.538,360.813,510.68,360.813z M389.179,352.59c-11.661,0-21.146,9.486-21.146,21.15
		c0,11.661,9.485,21.146,21.146,21.146c11.662,0,21.148-9.484,21.148-21.146C410.328,362.076,400.841,352.59,389.179,352.59z
		 M389.179,388.78c-8.296,0-15.044-6.746-15.044-15.04c0-8.295,6.749-15.047,15.044-15.047c8.295,0,15.043,6.752,15.043,15.047
		C404.222,382.034,397.474,388.78,389.179,388.78z M583.064,376.321c-2.854,0-5.175,2.313-5.175,5.17
		c0,2.857,2.32,5.172,5.175,5.172c2.855,0,5.166-2.314,5.166-5.172C588.23,378.635,585.92,376.321,583.064,376.321z
		 M531.362,360.813c-2.854,0-5.171,2.312-5.171,5.168s2.315,5.171,5.171,5.171s5.169-2.313,5.169-5.171
		C536.531,363.123,534.219,360.813,531.362,360.813z M562.389,376.321c-2.857,0-5.171,2.313-5.171,5.17
		c0,2.857,2.313,5.172,5.171,5.172c2.851,0,5.166-2.314,5.166-5.172C567.555,378.635,565.238,376.321,562.389,376.321z
		 M541.702,376.321c-2.854,0-5.171,2.313-5.171,5.17c0,2.857,2.315,5.172,5.171,5.172c2.858,0,5.175-2.314,5.175-5.172
		C546.877,378.635,544.561,376.321,541.702,376.321z M572.727,360.813c-2.859,0-5.172,2.312-5.172,5.168s2.313,5.171,5.172,5.171
		c2.856,0,5.164-2.313,5.164-5.171C577.891,363.123,575.583,360.813,572.727,360.813z M552.043,360.813
		c-2.857,0-5.166,2.312-5.166,5.168s2.309,5.171,5.166,5.171c2.854,0,5.175-2.313,5.175-5.171
		C557.218,363.123,554.896,360.813,552.043,360.813z M593.403,360.813c-2.856,0-5.173,2.312-5.173,5.168s2.315,5.171,5.173,5.171
		c2.856,0,5.174-2.313,5.174-5.171C598.577,363.123,596.261,360.813,593.403,360.813z M531.362,164.337
		c-2.854,0-5.171,2.316-5.171,5.17c0,2.858,2.315,5.174,5.171,5.174s5.169-2.314,5.169-5.174
		C536.531,166.654,534.219,164.337,531.362,164.337z M572.727,164.337c-2.859,0-5.172,2.316-5.172,5.17
		c0,2.858,2.313,5.174,5.172,5.174c2.856,0,5.164-2.314,5.164-5.174C577.891,166.654,575.583,164.337,572.727,164.337z
		 M552.043,164.337c-2.857,0-5.166,2.316-5.166,5.17c0,2.858,2.309,5.174,5.166,5.174c2.854,0,5.175-2.314,5.175-5.174
		C557.218,166.654,554.896,164.337,552.043,164.337z M541.702,179.853c-2.854,0-5.171,2.313-5.171,5.166
		c0,2.855,2.315,5.17,5.171,5.17c2.858,0,5.175-2.314,5.175-5.17C546.877,182.166,544.561,179.853,541.702,179.853z
		 M562.389,179.853c-2.857,0-5.171,2.313-5.171,5.166c0,2.855,2.313,5.17,5.171,5.17c2.851,0,5.166-2.314,5.166-5.17
		C567.555,182.166,565.238,179.853,562.389,179.853z M583.064,179.853c-2.854,0-5.175,2.313-5.175,5.166
		c0,2.855,2.32,5.17,5.175,5.17c2.855,0,5.166-2.314,5.166-5.17C588.23,182.166,585.92,179.853,583.064,179.853z M642.993,207.729
		v-60.931c0-11.969-9.736-21.705-21.708-21.705H358.714c-11.97,0-21.707,9.736-21.707,21.705v60.923
		c0,6.613,3.055,12.809,8.382,16.992l2.118,1.662l-2.118,1.667c-5.328,4.19-8.382,10.385-8.382,16.995v60.925
		c0,6.613,3.055,12.804,8.38,16.987l2.121,1.664l-2.118,1.665c-5.328,4.191-8.382,10.385-8.382,16.992v60.924
		c0,11.974,9.737,21.71,21.707,21.71h262.567c11.971,0,21.708-9.735,21.708-21.704v-60.93c0-6.607-3.055-12.8-8.378-16.988
		l-2.118-1.666l2.119-1.663c5.326-4.183,8.381-10.374,8.381-16.987v-60.929c0-6.609-3.055-12.803-8.378-16.99l-2.118-1.666
		l2.118-1.664C639.941,220.532,642.993,214.34,642.993,207.729z M636.888,343.271v60.924c0,8.604-6.999,15.604-15.603,15.604
		H358.714c-4.167,0-8.082-1.623-11.029-4.571c-2.949-2.95-4.572-6.867-4.572-11.027v-60.93c0-8.601,6.998-15.598,15.602-15.598
		h262.567C629.887,327.675,636.888,334.672,636.888,343.271z M636.888,245.038v60.925c0,8.604-6.999,15.603-15.603,15.603H358.714
		c-4.16,0-8.078-1.624-11.027-4.573c-2.949-2.946-4.575-6.862-4.575-11.024v-60.929c0-8.602,6.998-15.6,15.602-15.6h262.567
		C629.887,229.438,636.888,236.437,636.888,245.038z M621.285,223.328H358.706c-4.157,0-8.07-1.624-11.019-4.57
		c-2.949-2.949-4.575-6.866-4.575-11.027V146.8c0-8.604,6.998-15.604,15.602-15.604h262.567c8.604,0,15.605,7,15.605,15.604v60.923
		C636.888,216.327,629.889,223.328,621.285,223.328z M603.747,179.853c-2.854,0-5.17,2.313-5.17,5.166c0,2.855,2.315,5.17,5.17,5.17
		c2.858,0,5.166-2.314,5.166-5.17C608.913,182.166,606.605,179.853,603.747,179.853z M593.403,164.337
		c-2.856,0-5.173,2.316-5.173,5.17c0,2.858,2.315,5.174,5.173,5.174c2.856,0,5.174-2.314,5.174-5.174
		C598.577,166.654,596.261,164.337,593.403,164.337z M552.043,262.578c-2.857,0-5.166,2.313-5.166,5.17
		c0,2.853,2.309,5.166,5.166,5.166c2.854,0,5.175-2.313,5.175-5.166C557.218,264.891,554.896,262.578,552.043,262.578z
		 M583.064,278.088c-2.854,0-5.175,2.316-5.175,5.168c0,2.857,2.32,5.172,5.175,5.172c2.855,0,5.166-2.313,5.166-5.172
		C588.23,280.404,585.92,278.088,583.064,278.088z M521.02,179.853c-2.853,0-5.168,2.313-5.168,5.166c0,2.855,2.315,5.17,5.168,5.17
		c2.855,0,5.173-2.314,5.173-5.17C526.191,182.166,523.875,179.853,521.02,179.853z M593.403,262.578
		c-2.856,0-5.173,2.313-5.173,5.17c0,2.853,2.315,5.166,5.173,5.166c2.856,0,5.174-2.313,5.174-5.166
		C598.577,264.891,596.261,262.578,593.403,262.578z M562.389,278.088c-2.857,0-5.171,2.316-5.171,5.168
		c0,2.857,2.313,5.172,5.171,5.172c2.851,0,5.166-2.313,5.166-5.172C567.555,280.404,565.238,278.088,562.389,278.088z
		 M572.727,262.578c-2.859,0-5.172,2.313-5.172,5.17c0,2.853,2.313,5.166,5.172,5.166c2.856,0,5.164-2.313,5.164-5.166
		C577.891,264.891,575.583,262.578,572.727,262.578z M510.68,164.337c-2.854,0-5.171,2.316-5.171,5.17
		c0,2.858,2.316,5.174,5.171,5.174c2.858,0,5.172-2.314,5.172-5.174C515.852,166.654,513.538,164.337,510.68,164.337z
		 M389.179,156.119c-11.661,0-21.146,9.484-21.146,21.146c0,11.662,9.485,21.15,21.146,21.15c11.662,0,21.148-9.488,21.148-21.15
		C410.328,165.603,400.841,156.119,389.179,156.119z M389.179,192.308c-8.296,0-15.044-6.749-15.044-15.044
		c0-8.296,6.749-15.044,15.044-15.044c8.295,0,15.043,6.748,15.043,15.044C404.222,185.559,397.474,192.308,389.179,192.308z
		 M603.747,278.088c-2.854,0-5.17,2.316-5.17,5.168c0,2.857,2.315,5.172,5.17,5.172c2.858,0,5.166-2.313,5.166-5.172
		C608.913,280.404,606.605,278.088,603.747,278.088z"/>
</g>
</svg>
